<?xml version="1.0" encoding="UTF-8" standalone="no"?>
<!DOCTYPE svg PUBLIC "-//W3C//DTD SVG 1.1//EN" "http://www.w3.org/Graphics/SVG/1.1/DTD/svg11.dtd">
<svg width="100%" height="100%" viewBox="0 0 128 123" version="1.1" xmlns="http://www.w3.org/2000/svg" xmlns:xlink="http://www.w3.org/1999/xlink" xml:space="preserve" xmlns:serif="http://www.serif.com/" style="fill-rule:evenodd;clip-rule:evenodd;stroke-linejoin:round;stroke-miterlimit:2;">
    <g transform="matrix(1,0,0,1,-3234.22,-86.8958)">
        <g transform="matrix(0.525048,0,0,0.525048,2653.56,-64.8724)">
            <path d="M1148.65,363.595L1148.86,363.448C1156.68,351.358 1166.09,340.899 1178.42,333.384C1176.7,323.32 1171.73,311.203 1165.61,305.511C1157.56,298.032 1144.88,294.48 1133.94,297.751C1123.59,300.841 1115.92,309.684 1113.97,319.392C1112.01,329.1 1115.4,339.372 1122.03,347.201C1128.66,355.03 1138.3,360.515 1148.65,363.595Z" style="fill:rgb(227,154,112);fill-rule:nonzero;"/>
            <path d="M1145.04,343.777C1149.08,346.699 1153.49,349.086 1158.13,350.922C1160.83,347.756 1163.72,344.773 1166.82,342.009C1164.63,334.187 1161.23,326.891 1154.84,322.144C1149.94,318.503 1142.4,317.134 1138.06,321.421C1134.88,324.553 1134.55,329.784 1136.28,333.894C1138.01,338.004 1141.43,341.163 1145.04,343.777Z" style="fill:rgb(251,217,190);fill-rule:nonzero;"/>
            <path d="M1306.75,363.389L1306.99,363.595C1317.34,360.515 1326.98,355.03 1333.61,347.201C1340.24,339.372 1343.63,329.1 1341.67,319.392C1339.72,309.684 1332.05,300.841 1321.7,297.751C1310.76,294.48 1298.08,298.032 1290.03,305.511C1283.28,311.786 1279.61,324.438 1279,334.511C1290.44,341.918 1299.32,351.914 1306.75,363.389Z" style="fill:rgb(227,154,112);fill-rule:nonzero;"/>
            <path d="M1297.65,351.08C1302.43,349.225 1306.98,346.783 1311.14,343.777C1314.75,341.163 1318.17,338.004 1319.9,333.894C1321.63,329.784 1321.3,324.553 1318.12,321.421C1313.78,317.134 1306.24,318.503 1301.34,322.144C1294.84,326.97 1291.44,334.429 1289.25,342.398C1292.24,345.1 1295.03,348.002 1297.65,351.08Z" style="fill:rgb(251,217,190);fill-rule:nonzero;"/>
            <path d="M1307.81,365.045C1291.81,339.572 1269.15,320.94 1227.82,320.94C1186.49,320.94 1163.83,339.572 1147.83,365.045C1131.56,390.953 1110.5,448.393 1126.5,475.019C1142.5,501.645 1179.83,515.538 1227.82,515.538C1275.81,515.538 1313.14,501.645 1329.14,475.019C1345.14,448.393 1324.08,390.953 1307.81,365.045Z" style="fill:rgb(227,154,112);fill-rule:nonzero;"/>
            <path d="M1195.75,355.715C1196.67,355.276 1197.59,354.884 1198.47,354.55C1201.56,353.371 1203.12,349.904 1201.94,346.808C1200.76,343.71 1197.29,342.157 1194.19,343.336C1193.02,343.783 1191.81,344.3 1190.6,344.874C1187.61,346.296 1186.34,349.874 1187.76,352.868C1188.78,355.031 1190.94,356.296 1193.18,356.296C1194.04,356.296 1194.92,356.109 1195.75,355.715ZM1167.59,378.235C1166.48,378.235 1165.36,377.927 1164.35,377.28C1161.56,375.486 1160.76,371.773 1162.55,368.987C1165.31,364.702 1169.21,360.27 1173.84,356.17C1176.32,353.972 1180.11,354.2 1182.31,356.679C1184.51,359.159 1184.28,362.951 1181.8,365.149C1177.98,368.533 1174.82,372.106 1172.64,375.482C1171.5,377.264 1169.57,378.235 1167.59,378.235Z" style="fill:rgb(249,247,245);fill-rule:nonzero;"/>
            <path d="M1263.73,416.902C1258.24,416.902 1253.78,421.356 1253.78,426.85C1253.78,432.344 1258.24,436.797 1263.73,436.797C1269.22,436.797 1273.68,432.344 1273.68,426.85C1273.68,421.356 1269.22,416.902 1263.73,416.902ZM1201.86,426.85C1201.86,432.344 1197.41,436.797 1191.91,436.797C1186.42,436.797 1181.96,432.344 1181.96,426.85C1181.96,421.356 1186.42,416.902 1191.91,416.902C1197.41,416.902 1201.86,421.356 1201.86,426.85Z" style="fill:rgb(97,81,67);fill-rule:nonzero;"/>
            <path d="M1227.82,414.534C1227.82,414.534 1266.82,450.218 1263.48,472.974C1260.14,495.729 1241.35,501.935 1230.49,501.935C1219.63,501.935 1200.84,495.729 1197.5,472.974C1194.16,450.218 1227.82,414.534 1227.82,414.534Z" style="fill:rgb(251,217,190);fill-rule:nonzero;"/>
            <path d="M1246.48,462.046C1246.48,467.54 1239.32,477.326 1230.49,477.326C1221.65,477.326 1214.49,467.54 1214.49,462.046C1214.49,456.552 1221.65,452.099 1230.49,452.099C1239.32,452.099 1246.48,456.552 1246.48,462.046Z" style="fill:rgb(97,81,67);fill-rule:nonzero;"/>
            <path d="M1216.53,491.526C1214.57,491.526 1213.24,491.235 1213.12,491.207C1211.24,490.779 1210.06,488.904 1210.48,487.019C1210.91,485.134 1212.79,483.957 1214.67,484.381C1214.69,484.385 1218.82,485.219 1222.22,482.942C1224.53,481.399 1226.1,478.693 1226.91,474.894L1226.27,471.392L1234.68,471.392L1234.04,474.89C1234.85,478.691 1236.43,481.398 1238.74,482.941C1242.14,485.22 1246.27,484.385 1246.31,484.375C1248.2,483.979 1250.05,485.171 1250.47,487.049C1250.88,488.927 1249.71,490.782 1247.84,491.207C1247.56,491.272 1240.88,492.73 1234.94,488.827C1233.19,487.672 1231.7,486.197 1230.48,484.41C1229.26,486.196 1227.77,487.672 1226.01,488.826C1222.66,491.033 1219.07,491.526 1216.53,491.526Z" style="fill:rgb(97,81,67);fill-rule:nonzero;"/>
            <path d="M1322.71,471.157C1308.63,494.595 1274.04,508.038 1227.82,508.038C1181.6,508.038 1147.01,494.595 1132.93,471.157C1119.94,449.535 1136.55,397.105 1154.18,369.034C1171.82,340.959 1194.53,328.44 1227.82,328.44C1261.12,328.44 1283.83,340.959 1301.46,369.034C1319.09,397.105 1335.7,449.536 1322.71,471.157ZM1127.75,342.353C1122.31,335.926 1119.9,327.896 1121.32,320.874C1122.8,313.539 1128.73,307.134 1136.08,304.937C1144.06,302.555 1154.1,305.05 1160.5,311.005C1165.73,315.86 1168.84,323.017 1169.14,330.602C1160.48,336.845 1152.73,344.836 1145.76,354.66C1138.34,351.712 1132.06,347.442 1127.75,342.353ZM1295.14,311.005C1301.54,305.051 1311.59,302.556 1319.56,304.937C1326.91,307.134 1332.84,313.538 1334.32,320.874C1335.74,327.896 1333.33,335.926 1327.89,342.353C1323.58,347.442 1317.3,351.712 1309.88,354.66C1302.91,344.836 1295.16,336.845 1286.5,330.602C1286.8,323.017 1289.91,315.86 1295.14,311.005ZM1317.97,367.545C1326.6,363.744 1333.89,358.479 1339.33,352.048C1347.72,342.151 1351.34,329.39 1349.03,317.911C1346.44,305.097 1336.56,294.363 1323.85,290.565C1310.84,286.675 1295.19,290.475 1284.92,300.018C1278.53,305.959 1274.24,313.753 1272.44,322.362C1259.47,316.352 1244.71,313.44 1227.82,313.44C1210.93,313.44 1196.18,316.352 1183.21,322.361C1181.4,313.752 1177.11,305.959 1170.72,300.018C1160.45,290.475 1144.81,286.676 1131.79,290.565C1119.08,294.362 1109.2,305.096 1106.61,317.91C1104.3,329.39 1107.92,342.152 1116.31,352.048C1121.76,358.48 1129.04,363.745 1137.67,367.546C1130.79,379.946 1122.82,398.067 1117.8,417.922C1109.38,451.164 1114.39,469.42 1120.07,478.882C1137.18,507.356 1175.45,523.038 1227.82,523.038C1280.2,523.038 1318.46,507.356 1335.57,478.882C1341.25,469.42 1346.26,451.165 1337.85,417.922C1332.82,398.066 1324.85,379.946 1317.97,367.545Z" style="fill:rgb(197,137,96);fill-rule:nonzero;"/>
        </g>
    </g>
</svg>
