<?xml version="1.0" encoding="UTF-8" standalone="no"?>
<!DOCTYPE svg PUBLIC "-//W3C//DTD SVG 1.1//EN" "http://www.w3.org/Graphics/SVG/1.1/DTD/svg11.dtd">
<svg width="100%" height="100%" viewBox="0 0 128 118" version="1.1" xmlns="http://www.w3.org/2000/svg" xmlns:xlink="http://www.w3.org/1999/xlink" xml:space="preserve" xmlns:serif="http://www.serif.com/" style="fill-rule:evenodd;clip-rule:evenodd;stroke-linejoin:round;stroke-miterlimit:2;">
    <g transform="matrix(1,0,0,1,-4672.9,0)">
        <g transform="matrix(0.462077,0,0,0.462077,3979.54,-128.748)">
            <path d="M1755.17,378.412C1753.26,342.497 1754.53,308.671 1743.04,288.079C1709.86,301.597 1686.25,332.222 1686.25,332.222C1677.32,329.535 1655.63,325.49 1639.04,325.49C1622.45,325.49 1600.75,329.535 1591.82,332.222C1591.82,332.222 1568.21,301.597 1535.03,288.079C1523.54,308.671 1524.81,342.497 1522.9,378.412C1522.9,378.412 1509.7,435.629 1522.68,461.288C1535.67,486.947 1582.88,525.965 1639.04,525.965C1695.19,525.965 1742.4,486.947 1755.39,461.288C1768.37,435.629 1755.17,378.412 1755.17,378.412Z" style="fill:rgb(251,217,190);fill-rule:nonzero;"/>
            <path d="M1587.27,361.497C1588.19,361.06 1589.1,360.668 1589.99,360.331C1593.08,359.15 1594.64,355.683 1593.46,352.587C1592.28,349.491 1588.81,347.937 1585.71,349.119C1584.53,349.567 1583.33,350.085 1582.12,350.656C1579.13,352.077 1577.86,355.656 1579.28,358.65C1580.3,360.812 1582.46,362.078 1584.7,362.078C1585.56,362.078 1586.44,361.891 1587.27,361.497ZM1559.11,384.017C1558,384.017 1556.87,383.708 1555.87,383.061C1553.08,381.268 1552.28,377.555 1554.07,374.769C1556.83,370.485 1560.73,366.053 1565.36,361.952C1567.84,359.755 1571.63,359.981 1573.83,362.46C1576.03,364.94 1575.8,368.732 1573.32,370.931C1569.5,374.315 1566.34,377.889 1564.16,381.264C1563.02,383.046 1561.08,384.017 1559.11,384.017Z" style="fill:rgb(249,247,245);fill-rule:nonzero;"/>
            <path d="M1743.04,288.079C1709.86,301.597 1686.25,332.222 1686.25,332.222C1677.32,329.535 1655.63,325.49 1639.04,325.49C1638.09,325.49 1637.13,325.507 1636.15,325.532C1634.19,341.113 1632.93,356.755 1633.37,372.453C1634.15,400.563 1640.69,429.212 1656.46,451.887C1672.8,475.371 1698.49,489.994 1725.81,494.485C1739.91,483.47 1750.29,471.354 1755.39,461.288C1768.37,435.629 1755.17,378.412 1755.17,378.412C1753.26,342.497 1754.53,308.671 1743.04,288.079Z" style="fill:rgb(239,130,33);fill-rule:nonzero;"/>
            <path d="M1573.48,347.131C1568.79,338.494 1556.09,328.422 1547.21,325.041C1543.64,336.735 1546.2,352.449 1547.62,364.644C1556.74,360.024 1563.23,351.878 1573.48,347.131Z" style="fill:rgb(245,246,243);fill-rule:nonzero;"/>
            <path d="M1704.59,347.131C1709.28,338.494 1721.98,328.422 1730.86,325.041C1734.43,336.735 1731.87,352.449 1730.45,364.644C1721.33,360.024 1714.84,351.878 1704.59,347.131Z" style="fill:rgb(245,246,243);fill-rule:nonzero;"/>
            <path d="M1682.39,428.745C1676.57,428.745 1671.84,433.468 1671.84,439.295C1671.84,445.121 1676.57,449.844 1682.39,449.844C1688.22,449.844 1692.94,445.121 1692.94,439.295C1692.94,433.468 1688.22,428.745 1682.39,428.745ZM1606.23,439.295C1606.23,445.121 1601.5,449.844 1595.68,449.844C1589.85,449.844 1585.13,445.121 1585.13,439.295C1585.13,433.468 1589.85,428.745 1595.68,428.745C1601.5,428.745 1606.23,433.468 1606.23,439.295Z" style="fill:rgb(97,81,67);fill-rule:nonzero;"/>
            <path d="M1650.82,461.448C1650.82,465.02 1645.55,469.648 1639.05,469.648C1632.55,469.648 1627.28,465.02 1627.28,461.448C1627.28,457.877 1632.55,454.982 1639.05,454.982C1645.55,454.982 1650.82,457.877 1650.82,461.448Z" style="fill:rgb(97,81,67);fill-rule:nonzero;"/>
            <path d="M1666.12,477.49C1664.81,476.411 1662.96,476.724 1661.99,478.19C1659.55,481.903 1655.16,483.982 1651.07,483.357C1647.76,482.852 1644.82,479.115 1642.55,475.947L1642.55,465.815C1642.55,463.882 1640.98,462.315 1639.05,462.315C1637.12,462.315 1635.55,463.882 1635.55,465.815L1635.55,476.244C1633.43,479.649 1630.24,482.869 1627.04,483.357C1622.95,483.98 1618.56,481.904 1616.11,478.19C1615.14,476.724 1613.3,476.411 1611.99,477.49C1610.67,478.569 1610.39,480.631 1611.36,482.098C1615.1,487.784 1621.57,490.842 1627.83,489.888C1632.41,489.191 1636.39,485.685 1639.21,481.783C1641.91,485.323 1645.54,489.167 1650.27,489.888C1651.03,490.004 1651.79,490.061 1652.56,490.061C1658.06,490.061 1663.45,487.094 1666.75,482.098C1667.71,480.631 1667.43,478.569 1666.12,477.49Z" style="fill:rgb(97,81,67);fill-rule:nonzero;"/>
            <path d="M1709.38,496.914C1693.88,506.745 1669.08,518.465 1639.03,518.465C1608.99,518.465 1584.19,506.745 1568.69,496.914C1547.44,483.446 1534.45,467.931 1529.38,457.902C1519.75,438.876 1526.72,395.286 1530.21,380.096L1530.36,379.459L1530.39,378.809C1530.76,371.933 1531.01,365.126 1531.25,358.544C1532.1,335.339 1532.92,313.257 1538.71,297.968C1566.16,311.594 1585.67,336.535 1585.88,336.801L1589.03,340.891L1593.98,339.404C1602.7,336.782 1623.76,332.99 1639.03,332.99C1654.31,332.99 1675.37,336.782 1684.09,339.404L1689.04,340.891L1692.19,336.801C1692.4,336.531 1711.82,311.621 1739.36,297.966C1745.16,313.256 1745.97,335.341 1746.82,358.549C1747.06,365.13 1747.31,371.935 1747.68,378.809L1747.71,379.461L1747.86,380.098C1751.36,395.276 1758.34,438.842 1748.69,457.902C1743.62,467.931 1730.63,483.446 1709.38,496.914ZM1746.69,485.715L1775.84,489.052L1777.54,474.149L1757.82,471.892C1759.43,469.464 1760.88,467.05 1762.08,464.674C1775.49,438.157 1764.16,384.297 1762.62,377.382C1762.28,370.841 1762.04,364.315 1761.81,357.998C1760.72,328.319 1759.78,302.687 1749.59,284.425L1746.36,278.628L1740.21,281.133C1712.41,292.46 1691.32,314.7 1683.54,323.732C1672.6,321.063 1654.16,317.99 1639.03,317.99C1623.91,317.99 1605.47,321.063 1594.53,323.732C1586.75,314.7 1565.66,292.46 1537.86,281.133L1531.71,278.628L1528.48,284.425C1518.29,302.686 1517.35,328.316 1516.26,357.993C1516.03,364.313 1515.79,370.842 1515.45,377.385C1514.77,380.462 1511.98,393.629 1510.46,409.513C1508.1,434.187 1509.96,452.746 1515.99,464.674C1517.19,467.05 1518.64,469.464 1520.25,471.892L1500.53,474.149L1502.23,489.052L1531.38,485.715C1532.54,486.938 1533.74,488.152 1534.98,489.36L1519.1,507.622L1530.42,517.464L1546.22,499.295C1550.75,502.916 1555.59,506.373 1560.65,509.583C1577.84,520.478 1605.39,533.465 1639.03,533.465C1672.68,533.465 1700.23,520.478 1717.41,509.583C1722.48,506.373 1727.32,502.915 1731.85,499.295L1747.65,517.464L1758.97,507.622L1743.09,489.36C1744.33,488.152 1745.53,486.938 1746.69,485.715Z" style="fill:rgb(242,184,160);fill-rule:nonzero;"/>
        </g>
    </g>
</svg>
