<?xml version="1.0" encoding="UTF-8" standalone="no"?>
<!DOCTYPE svg PUBLIC "-//W3C//DTD SVG 1.1//EN" "http://www.w3.org/Graphics/SVG/1.1/DTD/svg11.dtd">
<svg width="100%" height="100%" viewBox="0 0 128 115" version="1.1" xmlns="http://www.w3.org/2000/svg" xmlns:xlink="http://www.w3.org/1999/xlink" xml:space="preserve" xmlns:serif="http://www.serif.com/" style="fill-rule:evenodd;clip-rule:evenodd;stroke-linejoin:round;stroke-miterlimit:2;">
    <g transform="matrix(1,0,0,1,-3118.58,-3052.8)">
        <g transform="matrix(0.433047,0,0,0.433047,2650.88,2425.46)">
            <path d="M1335.13,1459.62C1334.13,1455.48 1328.46,1454.92 1326.63,1458.76C1323.09,1466.22 1318.3,1476.21 1315,1482.82C1309.76,1493.32 1279.58,1498.37 1279.53,1498.38C1290.27,1505.31 1300.77,1515.73 1310.32,1531.3C1310.32,1531.3 1331.36,1517.8 1335.57,1498.38C1338.57,1484.53 1337.69,1470.26 1335.13,1459.62ZM1145.33,1531.3C1145.33,1531.3 1124.28,1517.8 1120.07,1498.38C1117.07,1484.53 1117.95,1470.26 1120.52,1459.62C1121.51,1455.48 1127.18,1454.92 1129.01,1458.76C1132.56,1466.22 1137.35,1476.21 1140.64,1482.82C1145.88,1493.32 1176.06,1498.37 1176.11,1498.38C1165.37,1505.31 1154.87,1515.73 1145.33,1531.3Z" style="fill:rgb(198,171,146);fill-rule:nonzero;"/>
            <path d="M1145.33,1531.3C1130.57,1546.22 1111.39,1562.57 1090.95,1567.31C1096.06,1577.64 1106.18,1585.35 1117.49,1587.54C1128.81,1589.73 1140.37,1588.17 1148.96,1580.48L1145.33,1531.3Z" style="fill:rgb(114,100,88);fill-rule:nonzero;"/>
            <path d="M1147.33,1558.48C1131.54,1569.97 1110.09,1573.32 1091.29,1567.95C1096.5,1577.96 1106.41,1585.4 1117.49,1587.54C1128.81,1589.73 1140.37,1588.17 1148.96,1580.48L1147.33,1558.48Z" style="fill:rgb(238,222,207);fill-rule:nonzero;"/>
            <path d="M1310.32,1531.3C1325.07,1546.22 1344.25,1562.57 1364.69,1567.31C1359.58,1577.64 1349.47,1585.35 1338.15,1587.54C1326.83,1589.73 1315.28,1588.17 1306.69,1580.48L1310.32,1531.3Z" style="fill:rgb(114,100,88);fill-rule:nonzero;"/>
            <path d="M1308.48,1558.48C1324.28,1569.97 1345.73,1573.32 1364.52,1567.95C1359.31,1577.96 1349.4,1585.4 1338.32,1587.54C1327,1589.73 1315.45,1588.17 1306.86,1580.48L1308.48,1558.48Z" style="fill:rgb(238,222,207);fill-rule:nonzero;"/>
            <path d="M1227.82,1484.97C1202.57,1484.97 1170.58,1490.09 1145.33,1531.3C1145.33,1531.3 1145.33,1573.36 1153.74,1604.51C1162.16,1635.66 1183.21,1655.02 1186.57,1672.69C1189.94,1690.37 1200.04,1705.52 1227.82,1705.52C1255.6,1705.52 1265.7,1690.37 1269.07,1672.69C1272.44,1655.02 1293.48,1635.66 1301.9,1604.51C1310.32,1573.36 1310.32,1531.3 1310.32,1531.3C1285.06,1490.09 1253.08,1484.97 1227.82,1484.97Z" style="fill:rgb(232,230,229);fill-rule:nonzero;"/>
            <path d="M1238.45,1686.05C1241.17,1685.62 1243.03,1683.06 1242.6,1680.33C1241.88,1675.79 1244.44,1670.81 1248.55,1668.75C1251.01,1667.51 1252.01,1664.5 1250.77,1662.03C1249.53,1659.57 1246.52,1658.57 1244.05,1659.81C1236.1,1663.81 1231.33,1673.1 1232.73,1681.9C1233.12,1684.36 1235.24,1686.11 1237.66,1686.11C1237.92,1686.11 1238.18,1686.09 1238.45,1686.05ZM1219.2,1685.78C1219.06,1685.78 1218.92,1685.77 1218.77,1685.76C1216.02,1685.53 1213.98,1683.11 1214.21,1680.36C1214.59,1675.78 1211.68,1671 1207.43,1669.24C1204.88,1668.18 1203.67,1665.26 1204.72,1662.71C1205.78,1660.16 1208.7,1658.94 1211.26,1660C1219.48,1663.41 1224.92,1672.32 1224.17,1681.19C1223.95,1683.8 1221.77,1685.78 1219.2,1685.78Z" style="fill:rgb(97,81,67);fill-rule:nonzero;"/>
            <path d="M1247.17,1486.32C1243.44,1513.45 1246.94,1562.92 1246.34,1577.79C1245.5,1598.62 1253.07,1631.95 1256.44,1641.55C1260.6,1653.38 1262.94,1659.06 1269.07,1672.69C1272.44,1655.02 1293.48,1635.66 1301.9,1604.51C1310.32,1573.36 1310.32,1531.3 1310.32,1531.3C1291.18,1500.07 1268.18,1489.58 1247.17,1486.32ZM1208.47,1486.32C1212.2,1513.45 1208.7,1562.92 1209.3,1577.79C1210.14,1598.62 1203.52,1627.1 1199.2,1641.55C1196.29,1651.28 1194.28,1655.49 1186.57,1672.69C1183.21,1655.02 1162.16,1635.66 1153.74,1604.51C1145.33,1573.36 1145.33,1531.3 1145.33,1531.3C1164.46,1500.07 1187.46,1489.58 1208.47,1486.32Z" style="fill:rgb(114,100,88);fill-rule:nonzero;"/>
            <path d="M1192.86,1522.59C1193.8,1522.15 1194.71,1521.76 1195.58,1521.43C1198.68,1520.25 1200.23,1516.78 1199.05,1513.68C1197.88,1510.59 1194.41,1509.03 1191.31,1510.21C1190.15,1510.65 1188.94,1511.17 1187.72,1511.75C1184.73,1513.16 1183.45,1516.74 1184.87,1519.74C1185.9,1521.9 1188.05,1523.17 1190.3,1523.17C1191.16,1523.17 1192.03,1522.98 1192.86,1522.59ZM1164.71,1545.11C1163.6,1545.11 1162.47,1544.8 1161.47,1544.15C1158.68,1542.36 1157.88,1538.65 1159.67,1535.86C1162.43,1531.58 1166.33,1527.15 1170.96,1523.04C1173.44,1520.85 1177.23,1521.07 1179.43,1523.55C1181.62,1526.03 1181.4,1529.82 1178.92,1532.02C1175.1,1535.41 1171.93,1538.98 1169.76,1542.36C1168.61,1544.14 1166.68,1545.11 1164.71,1545.11Z" style="fill:rgb(249,247,245);fill-rule:nonzero;"/>
            <path d="M1262.26,1579.51C1262.26,1584.71 1266.48,1588.93 1271.68,1588.93C1276.89,1588.93 1281.11,1584.71 1281.11,1579.51C1281.11,1574.3 1276.89,1570.09 1271.68,1570.09C1266.48,1570.09 1262.26,1574.3 1262.26,1579.51ZM1193.38,1579.51C1193.38,1584.71 1189.16,1588.93 1183.96,1588.93C1178.75,1588.93 1174.54,1584.71 1174.54,1579.51C1174.54,1574.3 1178.75,1570.09 1183.96,1570.09C1189.16,1570.09 1193.38,1574.3 1193.38,1579.51Z" style="fill:rgb(232,230,229);fill-rule:nonzero;"/>
            <path d="M1141.28,1537.62C1140.31,1537 1117.55,1522.18 1112.74,1499.97C1109.84,1486.56 1110.01,1471.22 1113.22,1457.86C1114.43,1452.85 1118.52,1449.27 1123.65,1448.74C1128.79,1448.21 1133.56,1450.87 1135.78,1455.54C1139.24,1462.8 1144.05,1472.84 1147.35,1479.47C1149.02,1482.82 1162.21,1488.45 1177.35,1490.98L1174.88,1505.78C1166.9,1504.44 1140.38,1499.09 1133.93,1486.17C1131.74,1481.77 1128.9,1475.91 1126.23,1470.34C1125.2,1479.15 1125.59,1488.42 1127.4,1496.79C1130.88,1512.86 1149.2,1524.88 1149.39,1525L1141.28,1537.62Z" style="fill:rgb(171,146,126);fill-rule:nonzero;"/>
            <path d="M1314.37,1537.62L1306.27,1524.99C1306.44,1524.88 1324.76,1512.86 1328.24,1496.79C1330.05,1488.42 1330.44,1479.15 1329.41,1470.34C1326.74,1475.92 1323.9,1481.79 1321.71,1486.17C1315.26,1499.09 1288.74,1504.44 1280.76,1505.78L1278.29,1490.98L1279.53,1498.38L1278.29,1490.98C1292.15,1488.65 1306.45,1483.17 1308.29,1479.47C1311.58,1472.88 1316.4,1462.82 1319.86,1455.54C1322.08,1450.87 1326.84,1448.2 1331.99,1448.74C1337.12,1449.27 1341.21,1452.86 1342.42,1457.86C1345.63,1471.21 1345.81,1486.56 1342.9,1499.97C1338.09,1522.18 1315.33,1537 1314.37,1537.62Z" style="fill:rgb(171,146,126);fill-rule:nonzero;"/>
            <path d="M1336.72,1580.18C1330.46,1581.39 1321.91,1581.7 1314.72,1577.17C1316.1,1566.5 1316.87,1556.31 1317.29,1548.25C1329.87,1559.36 1341.47,1566.94 1352.72,1571.39C1348.42,1575.84 1342.77,1579.01 1336.72,1580.18ZM1275.42,1642.61C1269.02,1652.95 1263.49,1661.88 1261.7,1671.29C1258.18,1689.78 1247.73,1698.02 1227.82,1698.02C1207.91,1698.02 1197.46,1689.78 1193.94,1671.29C1192.15,1661.88 1186.62,1652.95 1180.23,1642.61C1173.22,1631.29 1165.28,1618.47 1160.98,1602.55C1153.98,1576.64 1152.99,1542.21 1152.85,1533.41C1175.72,1497.39 1203.54,1492.47 1227.82,1492.47C1252.1,1492.47 1279.92,1497.39 1302.8,1533.41C1302.66,1542.21 1301.66,1576.64 1294.66,1602.55C1290.36,1618.47 1282.42,1631.29 1275.42,1642.61ZM1118.92,1580.18C1112.87,1579.01 1107.22,1575.84 1102.92,1571.39C1114.18,1566.94 1125.78,1559.36 1138.35,1548.25C1138.77,1556.31 1139.54,1566.5 1140.92,1577.17C1133.73,1581.7 1125.18,1581.39 1118.92,1580.18ZM1366.38,1560C1351.57,1556.57 1335.15,1545.62 1316.19,1526.57C1289.17,1483.09 1254.8,1477.47 1227.82,1477.47C1200.85,1477.47 1166.48,1483.09 1139.45,1526.57C1120.49,1545.62 1104.07,1556.57 1089.26,1560L1080.03,1562.14L1084.23,1570.63C1090.34,1582.99 1102.54,1592.29 1116.07,1594.9C1119.66,1595.6 1123.17,1595.94 1126.56,1595.94C1132.61,1595.94 1138.28,1594.85 1143.38,1592.72C1144.27,1597.4 1145.3,1602.03 1146.5,1606.47C1151.38,1624.49 1160.3,1638.92 1167.47,1650.51C1173.09,1659.58 1177.93,1667.42 1179.21,1674.1C1184.06,1699.56 1200.87,1713.02 1227.82,1713.02C1254.78,1713.02 1271.59,1699.56 1276.44,1674.1C1277.71,1667.42 1282.56,1659.58 1288.17,1650.51C1295.34,1638.92 1304.27,1624.49 1309.14,1606.47C1310.34,1602.03 1311.37,1597.4 1312.26,1592.72C1317.36,1594.85 1323.04,1595.94 1329.08,1595.94C1332.47,1595.94 1335.98,1595.6 1339.57,1594.9C1353.1,1592.29 1365.3,1582.99 1371.41,1570.63L1375.61,1562.14L1366.38,1560Z" style="fill:rgb(96,80,65);fill-rule:nonzero;"/>
        </g>
    </g>
</svg>
