<?xml version="1.0" encoding="UTF-8" standalone="no"?>
<!DOCTYPE svg PUBLIC "-//W3C//DTD SVG 1.1//EN" "http://www.w3.org/Graphics/SVG/1.1/DTD/svg11.dtd">
<svg width="100%" height="100%" viewBox="0 0 114 128" version="1.1" xmlns="http://www.w3.org/2000/svg" xmlns:xlink="http://www.w3.org/1999/xlink" xml:space="preserve" xmlns:serif="http://www.serif.com/" style="fill-rule:evenodd;clip-rule:evenodd;stroke-linejoin:round;stroke-miterlimit:2;">
    <g transform="matrix(1,0,0,1,-4745.15,-3018.01)">
        <g transform="matrix(0.47897,0,0,0.47897,4016.88,2324.83)">
            <path d="M1742.38,1574.61C1747.45,1560.28 1756.32,1470.22 1742.38,1456.58C1717.67,1470.9 1681.53,1505.7 1681.53,1505.7C1672,1504.34 1655.17,1500.24 1639.04,1500.24C1622.9,1500.24 1606.07,1504.34 1596.55,1505.7C1596.55,1505.7 1560.41,1470.9 1535.69,1456.58C1521.75,1470.22 1530.62,1560.28 1535.69,1574.61C1535.69,1574.61 1526.43,1602.22 1528.21,1617.41C1529.99,1632.6 1564.84,1645.11 1574.98,1658.98C1585.12,1672.85 1602.92,1706.97 1639.04,1706.97C1675.15,1706.97 1692.95,1672.85 1703.09,1658.98C1713.23,1645.11 1748.08,1632.6 1749.86,1617.41C1751.64,1602.22 1742.38,1574.61 1742.38,1574.61Z" style="fill:rgb(245,171,27);fill-rule:nonzero;"/>
            <path d="M1600.92,1534.08C1601.85,1533.64 1602.76,1533.25 1603.63,1532.92C1606.73,1531.74 1608.28,1528.27 1607.11,1525.18C1605.93,1522.08 1602.46,1520.53 1599.36,1521.7C1598.2,1522.15 1596.99,1522.66 1595.77,1523.24C1592.78,1524.66 1591.5,1528.24 1592.92,1531.23C1593.95,1533.4 1596.1,1534.66 1598.35,1534.66C1599.21,1534.66 1600.09,1534.48 1600.92,1534.08ZM1572.76,1556.6C1571.65,1556.6 1570.52,1556.29 1569.52,1555.65C1566.73,1553.85 1565.93,1550.14 1567.72,1547.35C1570.48,1543.07 1574.38,1538.63 1579.01,1534.54C1581.49,1532.34 1585.28,1532.57 1587.48,1535.05C1589.68,1537.53 1589.45,1541.32 1586.97,1543.52C1583.15,1546.9 1579.99,1550.47 1577.81,1553.85C1576.66,1555.63 1574.73,1556.6 1572.76,1556.6Z" style="fill:rgb(249,247,245);fill-rule:nonzero;"/>
            <path d="M1574.98,1658.98C1585.12,1672.85 1602.92,1706.97 1639.04,1706.97C1675.15,1706.97 1692.95,1672.85 1703.09,1658.98C1713.23,1645.11 1748.08,1632.6 1749.86,1617.41C1750.56,1611.46 1749.56,1603.6 1748.09,1596.24C1745.82,1597.66 1743.87,1599.43 1742.48,1601.67C1734.58,1614.41 1721.06,1620.97 1696.52,1629.42C1665.5,1640.1 1635.75,1680.35 1635.75,1680.35C1635.75,1680.35 1606,1640.1 1574.98,1629.42C1550.44,1620.97 1536.92,1614.41 1529.02,1601.67L1529.01,1601.66C1528.13,1607.31 1527.68,1612.91 1528.21,1617.41C1529.99,1632.6 1564.84,1645.11 1574.98,1658.98Z" style="fill:rgb(247,239,227);fill-rule:nonzero;"/>
            <path d="M1660.56,1673.69C1660.56,1680.14 1650.92,1691.63 1639.04,1691.63C1627.15,1691.63 1617.51,1680.14 1617.51,1673.69C1617.51,1667.24 1627.15,1662.01 1639.04,1662.01C1650.92,1662.01 1660.56,1667.24 1660.56,1673.69Z" style="fill:rgb(97,81,67);fill-rule:nonzero;"/>
            <path d="M1674.29,1606.34C1674.29,1612.52 1679.31,1617.54 1685.49,1617.54C1691.68,1617.54 1696.7,1612.52 1696.7,1606.34C1696.7,1600.15 1691.68,1595.13 1685.49,1595.13C1679.31,1595.13 1674.29,1600.15 1674.29,1606.34ZM1603.78,1606.34C1603.78,1612.52 1598.77,1617.54 1592.58,1617.54C1586.39,1617.54 1581.37,1612.52 1581.37,1606.34C1581.37,1600.15 1586.39,1595.13 1592.58,1595.13C1598.77,1595.13 1603.78,1600.15 1603.78,1606.34Z" style="fill:rgb(97,81,67);fill-rule:nonzero;"/>
            <path d="M1728.11,1541.52C1731.45,1526.97 1732.52,1505.77 1729.78,1489.56C1717.67,1494.96 1698.03,1515.33 1698.03,1515.33C1716.85,1525.31 1728.11,1541.52 1728.11,1541.52ZM1549.96,1541.52C1546.62,1526.97 1545.55,1505.77 1548.29,1489.56C1560.41,1494.96 1580.04,1515.33 1580.04,1515.33C1561.22,1525.31 1549.96,1541.52 1549.96,1541.52Z" style="fill:rgb(247,239,227);fill-rule:nonzero;"/>
            <path d="M1697.04,1654.56C1695.67,1656.43 1694.19,1658.62 1692.62,1660.93C1682.25,1676.28 1666.58,1699.47 1639.04,1699.47C1611.49,1699.47 1595.82,1676.28 1585.45,1660.93C1583.88,1658.62 1582.4,1656.43 1581.03,1654.55C1575.97,1647.63 1567.03,1641.82 1557.56,1635.68C1548.58,1629.85 1536.28,1621.87 1535.66,1616.54C1534.36,1605.47 1540.38,1584.24 1542.8,1576.99L1543.63,1574.54L1542.76,1572.11C1540.73,1566.37 1537.2,1541.88 1536.06,1515.02C1534.95,1489.05 1536.67,1474.41 1538.61,1467.25C1561.69,1482.65 1591.02,1510.79 1591.34,1511.1L1593.98,1513.64L1597.61,1513.12C1600.24,1512.75 1603.23,1512.2 1606.7,1511.57C1616.1,1509.87 1627.79,1507.74 1639.04,1507.74C1650.28,1507.74 1661.97,1509.87 1671.37,1511.57C1674.84,1512.2 1677.84,1512.75 1680.46,1513.12L1684.09,1513.64L1686.73,1511.1C1687.05,1510.79 1716.38,1482.65 1739.46,1467.25C1741.4,1474.41 1743.12,1489.05 1742.01,1515.02C1740.87,1541.88 1737.34,1566.37 1735.31,1572.11L1734.45,1574.54L1735.27,1576.99C1737.69,1584.24 1743.71,1605.47 1742.41,1616.54C1741.79,1621.87 1729.49,1629.85 1720.51,1635.68C1711.04,1641.82 1702.1,1647.63 1697.04,1654.56ZM1757.31,1618.28C1758.98,1604.03 1752.59,1581.98 1750.23,1574.52C1753.09,1563.75 1756.02,1538.69 1757,1515.66C1759.26,1462.61 1750.5,1454.03 1747.62,1451.22L1743.55,1447.23L1738.62,1450.09C1717.11,1462.56 1688.06,1489.24 1679.05,1497.71C1677.52,1497.45 1675.85,1497.14 1674.05,1496.82C1664.59,1495.1 1651.63,1492.74 1639.04,1492.74C1626.44,1492.74 1613.48,1495.1 1604.02,1496.82C1602.22,1497.14 1600.55,1497.45 1599.02,1497.71C1590.01,1489.24 1560.96,1462.56 1539.45,1450.09L1534.52,1447.23L1530.45,1451.22C1527.57,1454.03 1518.81,1462.61 1521.07,1515.66C1522.05,1538.69 1524.98,1563.75 1527.84,1574.52C1525.49,1581.98 1519.09,1604.03 1520.76,1618.28C1522.21,1630.61 1536.03,1639.58 1549.4,1648.26C1553.48,1650.91 1557.63,1653.61 1561.16,1656.24L1525.3,1669.98L1530.67,1683.99L1572.18,1668.09C1572.45,1668.49 1572.73,1668.9 1573.02,1669.33C1574.28,1671.2 1575.65,1673.21 1577.11,1675.31L1548.96,1701.47L1559.17,1712.46L1586.24,1687.29C1597.97,1701.12 1614.63,1714.47 1639.04,1714.47C1663.44,1714.47 1680.1,1701.12 1691.83,1687.29L1718.9,1712.46L1729.11,1701.47L1700.96,1675.31C1702.43,1673.21 1703.79,1671.2 1705.05,1669.33C1705.34,1668.9 1705.62,1668.49 1705.89,1668.09L1747.4,1683.99L1752.77,1669.98L1716.91,1656.24C1720.44,1653.61 1724.59,1650.91 1728.67,1648.26C1742.04,1639.58 1755.87,1630.61 1757.31,1618.28Z" style="fill:rgb(224,158,75);fill-rule:nonzero;"/>
        </g>
    </g>
</svg>
