<?xml version="1.0" encoding="UTF-8" standalone="no"?>
<!DOCTYPE svg PUBLIC "-//W3C//DTD SVG 1.1//EN" "http://www.w3.org/Graphics/SVG/1.1/DTD/svg11.dtd">
<svg width="100%" height="100%" viewBox="0 0 148 128" version="1.1" xmlns="http://www.w3.org/2000/svg" xmlns:xlink="http://www.w3.org/1999/xlink" xml:space="preserve" xmlns:serif="http://www.serif.com/" style="fill-rule:evenodd;clip-rule:evenodd;stroke-linejoin:round;stroke-miterlimit:2;">
    <g transform="matrix(1,0,0,1,-1703.08,-100.767)">
        <g transform="matrix(0.563073,0,0,0.563073,1316.92,-63.8676)">
            <path d="M725.586,370.659C734.197,350.986 745.931,334.041 760.313,321.662C749.101,317.016 732.898,312.56 723.921,313.478C712.619,314.634 701.573,320.842 696.485,330.684C691.538,340.252 692.74,352.018 697.523,361.663C701.27,369.218 711.494,379.234 719.836,386.506C721.584,380.64 723.563,375.282 725.586,370.659Z" style="fill:rgb(251,217,190);fill-rule:nonzero;"/>
            <path d="M937.667,330.684C932.578,320.842 921.532,314.634 910.23,313.478C900.192,312.451 885.058,317.563 874.913,322.598C888.806,334.889 900.169,351.478 908.565,370.659C910.483,375.042 912.361,380.087 914.041,385.597C922.217,378.967 932.361,370.268 936.628,361.663C941.411,352.018 942.614,340.252 937.667,330.684Z" style="fill:rgb(251,217,190);fill-rule:nonzero;"/>
            <path d="M908.565,370.659C890.44,329.249 858.505,299.885 817.076,299.885C775.647,299.885 743.712,329.249 725.586,370.659C707.461,412.07 692.788,512.209 817.076,512.209C941.363,512.209 926.69,412.07 908.565,370.659Z" style="fill:rgb(227,154,112);fill-rule:nonzero;"/>
            <path d="M788.303,330.98C789.234,330.539 790.149,330.146 791.022,329.814C794.119,328.635 795.673,325.168 794.493,322.071C793.314,318.974 789.847,317.421 786.751,318.6C785.585,319.044 784.379,319.56 783.165,320.136C780.17,321.555 778.893,325.133 780.311,328.127C781.337,330.292 783.491,331.559 785.738,331.559C786.598,331.559 787.473,331.373 788.303,330.98ZM760.149,353.499C759.037,353.499 757.911,353.19 756.907,352.543C754.121,350.749 753.316,347.036 755.11,344.25C757.869,339.965 761.772,335.533 766.396,331.433C768.875,329.236 772.667,329.463 774.866,331.943C777.064,334.422 776.836,338.214 774.357,340.413C770.541,343.796 767.374,347.369 765.2,350.746C764.053,352.528 762.121,353.499 760.149,353.499Z" style="fill:rgb(249,247,245);fill-rule:nonzero;"/>
            <path d="M860.231,362.754C847.284,358.127 829.159,368.923 817.076,368.923C804.992,368.923 786.867,358.127 773.92,362.754C760.974,367.381 749.382,383.574 756.472,402.081C763.563,420.587 778.236,419.045 777.373,440.636C777.084,447.862 777.287,455.17 779.065,461.702L817.076,447.819L855.087,461.702C856.865,455.17 857.068,447.862 856.779,440.636C855.915,419.045 870.588,420.587 877.679,402.081C884.77,383.574 873.178,367.381 860.231,362.754ZM849.834,472.559C844.162,479.816 834.212,484.589 817.076,484.589C799.939,484.589 789.99,479.816 784.317,472.559L817.076,460.594L849.834,472.559Z" style="fill:rgb(251,217,190);fill-rule:nonzero;"/>
            <path d="M837.359,397.362C832.023,397.362 827.698,401.687 827.698,407.023C827.698,412.358 832.023,416.683 837.359,416.683C842.694,416.683 847.019,412.358 847.019,407.023C847.019,401.687 842.694,397.362 837.359,397.362ZM806.453,407.023C806.453,412.358 802.128,416.683 796.793,416.683C791.457,416.683 787.132,412.358 787.132,407.023C787.132,401.687 791.457,397.362 796.793,397.362C802.128,397.362 806.453,401.687 806.453,407.023Z" style="fill:rgb(97,81,67);fill-rule:nonzero;"/>
            <path d="M714.09,391.804C706.958,386.072 696.785,377.056 690.804,364.995C684.519,352.321 684.152,338.207 689.822,327.24C695.82,315.639 708.593,307.507 723.158,306.017C738.232,304.474 751.599,309.899 760.155,314.722L752.79,327.789C746.128,324.034 735.845,319.802 724.684,320.939C715.244,321.905 706.79,327.082 703.147,334.129C699.661,340.87 700.071,349.918 704.242,358.331C707.794,365.493 713.909,372.413 723.487,380.113L714.09,391.804Z" style="fill:rgb(242,184,160);fill-rule:nonzero;"/>
            <path d="M920.062,391.804L910.664,380.113C920.243,372.413 926.358,365.492 929.909,358.331C934.081,349.918 934.49,340.87 931.005,334.128C927.362,327.082 918.907,321.905 909.467,320.939C898.308,319.802 888.024,324.034 881.362,327.789L873.996,314.722C882.553,309.899 895.922,304.474 910.993,306.017C925.558,307.507 938.331,315.639 944.329,327.239C949.999,338.207 949.632,352.321 943.347,364.995C937.367,377.055 927.194,386.071 920.062,391.804Z" style="fill:rgb(242,184,160);fill-rule:nonzero;"/>
            <path d="M817.076,307.385C781.737,307.385 750.894,331.543 732.457,373.667C723.022,395.223 712.456,439.965 732.701,470.926C747.36,493.343 775.747,504.709 817.076,504.709C858.404,504.709 886.792,493.343 901.45,470.927C921.696,439.965 911.13,395.223 901.695,373.667C883.258,331.543 852.415,307.385 817.076,307.385ZM817.076,519.709C770.364,519.709 737.752,506.058 720.147,479.136C709.615,463.029 704.974,442.954 706.353,419.469C707.368,402.169 711.874,383.283 718.716,367.652C739.652,319.819 775.503,292.385 817.076,292.385C858.649,292.385 894.499,319.819 915.436,367.652C922.277,383.283 926.783,402.169 927.799,419.469C929.177,442.954 924.536,463.029 914.004,479.136C896.4,506.058 863.788,519.709 817.076,519.709Z" style="fill:rgb(204,141,81);fill-rule:nonzero;"/>
        </g>
    </g>
</svg>
