<?xml version="1.0" encoding="UTF-8" standalone="no"?>
<!DOCTYPE svg PUBLIC "-//W3C//DTD SVG 1.1//EN" "http://www.w3.org/Graphics/SVG/1.1/DTD/svg11.dtd">
<svg width="100%" height="100%" viewBox="0 0 128 64" version="1.1" xmlns="http://www.w3.org/2000/svg" xmlns:xlink="http://www.w3.org/1999/xlink" xml:space="preserve" xmlns:serif="http://www.serif.com/" style="fill-rule:evenodd;clip-rule:evenodd;stroke-linejoin:round;stroke-miterlimit:2;">
    <g transform="matrix(1,0,0,1,-9.29534e-14,-3218.09)">
        <g transform="matrix(0.342221,0,0,0.342221,-75.2349,2708.75)">
            <path d="M333.659,1545.4C336.738,1540.13 340.333,1535.4 344.262,1531.15C344.262,1531.15 322.995,1495.84 306.901,1495.84C297.347,1495.84 246.757,1495.45 228.121,1549.67C225.956,1555.97 228.538,1563.33 233.911,1567.75C239.284,1572.16 247.323,1573.67 254.161,1571.54C250.236,1577.56 253.75,1586.41 259.51,1591.04C265.271,1595.67 274.678,1595.9 280.706,1591.57C281.562,1597.66 287.95,1602.24 294.492,1603.63C299.565,1604.71 308.562,1601.82 314.086,1598.09C316.334,1581.1 323.422,1562.89 333.659,1545.4Z" style="fill:rgb(182,182,183);fill-rule:nonzero;"/>
            <path d="M329.882,1552.17C325.753,1545.21 321.889,1538 315.889,1532.69C307.821,1525.55 298.1,1522.43 287.68,1525.85C279.029,1528.69 250.649,1541.77 257.665,1554.24C260.174,1558.7 266.759,1560.21 270.96,1557.28C272.106,1564.95 281.399,1570.02 288.492,1566.89C292.295,1576.39 301.596,1585.55 311.54,1587.94C312.939,1588.28 314.36,1588.51 315.791,1588.65C318.522,1576.69 323.408,1564.32 329.882,1552.17Z" style="fill:white;fill-rule:nonzero;"/>
            <path d="M585.593,1549.67C566.957,1495.45 516.367,1495.84 506.814,1495.84C490.719,1495.84 469.452,1531.15 469.452,1531.15C473.382,1535.4 476.976,1540.13 480.055,1545.4C490.541,1563.31 497.724,1581.99 499.784,1599.32C505.159,1602.72 514.07,1604.73 519.223,1603.63C525.764,1602.24 532.152,1597.66 533.008,1591.57C539.036,1595.9 548.443,1595.67 554.204,1591.04C559.964,1586.41 563.478,1577.56 559.554,1571.54C566.391,1573.67 574.43,1572.16 579.803,1567.75C585.176,1563.33 587.759,1555.97 585.593,1549.67Z" style="fill:rgb(182,182,183);fill-rule:nonzero;"/>
            <path d="M526.162,1525.85C515.742,1522.43 506.021,1525.55 497.953,1532.69C491.921,1538.03 488.047,1545.29 483.893,1552.28C490.339,1564.4 495.204,1576.73 497.926,1588.66C499.399,1588.52 500.862,1588.29 502.302,1587.94C512.245,1585.55 521.547,1576.39 525.35,1566.89C532.443,1570.02 541.736,1564.95 542.883,1557.28C547.083,1560.21 553.667,1558.7 556.176,1554.24C563.193,1541.77 534.813,1528.69 526.162,1525.85Z" style="fill:white;fill-rule:nonzero;"/>
            <path d="M480.056,1545.4C462.145,1514.79 427.103,1501.64 406.857,1501.64C386.611,1501.64 351.569,1514.79 333.659,1545.4C315.749,1576 307.45,1608.82 317.913,1633.37C329.772,1661.2 377.266,1665.85 406.857,1665.85C436.448,1665.85 483.942,1661.2 495.802,1633.37C506.265,1608.82 497.966,1576 480.056,1545.4Z" style="fill:rgb(182,182,183);fill-rule:nonzero;"/>
            <path d="M385.874,1532.74C386.804,1532.3 387.717,1531.91 388.588,1531.58C391.685,1530.4 393.24,1526.93 392.062,1523.84C390.884,1520.74 387.419,1519.19 384.321,1520.36C383.154,1520.81 381.946,1521.32 380.729,1521.9C377.735,1523.32 376.46,1526.9 377.88,1529.89C378.907,1532.06 381.06,1533.32 383.305,1533.32C384.168,1533.32 385.043,1533.14 385.874,1532.74ZM357.717,1555.26C356.605,1555.26 355.48,1554.95 354.475,1554.31C351.689,1552.51 350.884,1548.8 352.678,1546.01C355.437,1541.73 359.339,1537.3 363.964,1533.2C366.443,1531 370.235,1531.23 372.434,1533.71C374.632,1536.18 374.404,1539.98 371.924,1542.17C368.108,1545.56 364.942,1549.13 362.768,1552.51C361.621,1554.29 359.689,1555.26 357.717,1555.26Z" style="fill:rgb(249,247,245);fill-rule:nonzero;"/>
            <path d="M424.942,1665.25C426.848,1658.63 428.363,1650.1 427.097,1641.81C427.097,1641.81 414.434,1644.03 406.857,1644.03C399.28,1644.03 386.617,1641.81 386.617,1641.81C385.351,1650.1 386.866,1658.63 388.772,1665.25C395.192,1665.69 401.336,1665.85 406.857,1665.85C412.378,1665.85 418.522,1665.69 424.942,1665.25Z" style="fill:white;fill-rule:nonzero;"/>
            <path d="M446.835,1576.39C441.777,1576.39 437.678,1580.49 437.678,1585.55C437.678,1590.61 441.777,1594.71 446.835,1594.71C451.892,1594.71 455.992,1590.61 455.992,1585.55C455.992,1580.49 451.892,1576.39 446.835,1576.39ZM376.036,1585.55C376.036,1590.61 371.937,1594.71 366.88,1594.71C361.822,1594.71 357.723,1590.61 357.723,1585.55C357.723,1580.49 361.822,1576.39 366.88,1576.39C371.937,1576.39 376.036,1580.49 376.036,1585.55Z" style="fill:rgb(97,81,67);fill-rule:nonzero;"/>
            <path d="M426.539,1593.57C423.145,1583.39 415.68,1576.39 406.857,1576.39C398.034,1576.39 390.569,1583.39 387.175,1593.57C383.782,1603.75 379.71,1623.43 387.175,1626.82C394.641,1630.22 401.428,1631.57 406.857,1631.57C412.286,1631.57 419.073,1630.22 426.539,1626.82C434.004,1623.43 429.932,1603.75 426.539,1593.57Z" style="fill:rgb(97,81,67);fill-rule:nonzero;"/>
            <path d="M407.393,1649.01C399.11,1649.01 390.649,1648.06 383.216,1646.14C380.541,1645.46 378.931,1642.73 379.619,1640.05C380.308,1637.38 383.029,1635.77 385.707,1636.46C399.047,1639.89 415.993,1639.9 427.874,1636.5C430.529,1635.73 433.298,1637.27 434.06,1639.92C434.821,1642.58 433.287,1645.34 430.633,1646.11C423.888,1648.04 415.73,1649.01 407.393,1649.01Z" style="fill:rgb(97,81,67);fill-rule:nonzero;"/>
            <path d="M575.042,1561.95C571.636,1564.75 566.186,1565.75 561.784,1564.38C558.764,1563.44 555.48,1564.49 553.573,1567.01C551.664,1569.54 551.543,1572.98 553.269,1575.63C554.655,1577.76 552.755,1582.58 549.506,1585.19C546.357,1587.73 540.694,1587.86 537.386,1585.48C535.254,1583.95 532.475,1583.64 530.06,1584.67C527.645,1585.71 525.947,1587.93 525.581,1590.53C525.296,1592.56 522.044,1595.36 517.658,1596.3C513.922,1597.09 508.379,1595.29 506.47,1592.66L506.447,1592.68C503.663,1576.75 496.984,1559.48 486.529,1541.61C484.22,1537.66 481.605,1533.95 478.755,1530.48C487.924,1516.65 500.441,1503.34 506.814,1503.34L507.052,1503.34C532.008,1503.34 564.649,1511.81 578.5,1552.1C579.588,1555.27 578.134,1559.41 575.042,1561.95ZM488.902,1630.43C484.607,1640.51 473.54,1648.04 456.009,1652.81C439.184,1657.39 419.993,1658.35 406.857,1658.35C393.721,1658.35 374.531,1657.39 357.705,1652.81C340.174,1648.04 329.107,1640.51 324.813,1630.43C316.183,1610.18 321.767,1580.57 340.132,1549.18C357.201,1520.01 390.118,1509.14 406.857,1509.14C423.597,1509.14 456.514,1520.01 473.582,1549.18C491.948,1580.57 497.532,1610.18 488.902,1630.43ZM307.267,1592.68L307.245,1592.66C305.335,1595.29 299.791,1597.09 296.056,1596.3C291.67,1595.36 288.418,1592.56 288.133,1590.53C287.768,1587.93 286.069,1585.71 283.654,1584.67C281.239,1583.64 278.461,1583.95 276.329,1585.48C273.02,1587.86 267.357,1587.72 264.208,1585.19C260.959,1582.58 259.06,1577.76 260.445,1575.63C262.171,1572.98 262.049,1569.54 260.142,1567.01C258.234,1564.49 254.95,1563.43 251.93,1564.38C247.528,1565.75 242.078,1564.75 238.673,1561.95C235.581,1559.41 234.126,1555.27 235.214,1552.1C249.066,1511.8 281.706,1503.34 306.663,1503.34L306.9,1503.34C313.273,1503.34 325.79,1516.65 334.959,1530.48C332.109,1533.95 329.494,1537.66 327.185,1541.61C316.73,1559.48 310.051,1576.75 307.267,1592.68ZM592.685,1547.23C579.632,1509.25 549.224,1488.34 507.052,1488.34L506.814,1488.34C491.875,1488.34 476.25,1507.66 468.094,1519.47C449.294,1502.9 425.103,1494.14 406.857,1494.14C388.611,1494.14 364.421,1502.9 345.62,1519.47C337.465,1507.66 321.839,1488.34 306.9,1488.34L306.662,1488.34C264.494,1488.34 234.081,1509.26 221.029,1547.23C217.88,1556.39 221.144,1566.96 229.15,1573.54C233.597,1577.2 239.293,1579.38 245.152,1579.88C245.764,1585.8 248.791,1592.05 254.813,1596.89C260.924,1601.8 269.435,1603.33 277.017,1601.39C280.889,1606.44 287.068,1609.72 292.927,1610.96C294.613,1611.32 296.351,1611.5 298.102,1611.5C300.683,1611.5 303.289,1611.12 305.79,1610.42C305.939,1619.77 307.668,1628.47 311.013,1636.32C318.213,1653.21 340.685,1673.35 406.857,1673.35C473.028,1673.35 495.501,1653.21 502.702,1636.32C506.046,1628.47 507.775,1619.77 507.925,1610.42C510.425,1611.12 513.031,1611.5 515.612,1611.5C517.362,1611.5 519.101,1611.32 520.786,1610.96C526.646,1609.72 532.825,1606.44 536.698,1601.39C544.277,1603.33 552.79,1601.8 558.901,1596.89C564.923,1592.05 567.951,1585.8 568.562,1579.88C574.421,1579.38 580.117,1577.2 584.565,1573.54C592.571,1566.96 595.834,1556.39 592.685,1547.23Z" style="fill:rgb(147,144,142);fill-rule:nonzero;"/>
        </g>
    </g>
</svg>
