<?xml version="1.0" encoding="UTF-8" standalone="no"?>
<!DOCTYPE svg PUBLIC "-//W3C//DTD SVG 1.1//EN" "http://www.w3.org/Graphics/SVG/1.1/DTD/svg11.dtd">
<svg width="100%" height="100%" viewBox="0 0 128 101" version="1.1" xmlns="http://www.w3.org/2000/svg" xmlns:xlink="http://www.w3.org/1999/xlink" xml:space="preserve" xmlns:serif="http://www.serif.com/" style="fill-rule:evenodd;clip-rule:evenodd;stroke-linejoin:round;stroke-miterlimit:2;">
    <g transform="matrix(1,0,0,1,-89.1666,-1562.06)">
        <g transform="matrix(0.403532,0,0,0.403532,-11.0133,1209.22)">
            <path d="M551.178,906.132C539.86,886.473 513.459,876.181 492.62,885.14C480.389,890.399 471.191,901.165 465.21,913.059C459.228,924.953 456.106,938.042 453.032,950.995C440.077,944.627 423.044,939.172 406.857,939.172C390.67,939.172 373.638,944.627 360.682,950.995C357.608,938.042 354.486,924.953 348.505,913.059C342.524,901.165 333.325,890.399 321.094,885.14C300.255,876.181 273.854,886.473 262.537,906.132C251.219,925.791 254.573,952.123 268.586,969.961C282.6,987.798 305.826,997.206 328.506,996.817C316.062,1009.79 312.797,1034.78 318.502,1051.83C324.207,1068.88 337.008,1082.78 351.583,1093.31C367.652,1104.9 387.416,1112.99 406.857,1116.83C426.298,1112.99 446.063,1104.9 462.131,1093.31C476.706,1082.78 489.507,1068.88 495.212,1051.83C500.917,1034.78 497.653,1009.79 485.208,996.817C507.888,997.206 531.114,987.798 545.128,969.961C559.141,952.123 562.495,925.791 551.178,906.132Z" style="fill:rgb(182,182,183);fill-rule:nonzero;"/>
            <path d="M381.951,972.286C382.879,971.846 383.794,971.453 384.672,971.118C387.769,969.937 389.321,966.469 388.14,963.374C386.959,960.277 383.49,958.724 380.395,959.906C379.226,960.353 378.02,960.869 376.812,961.442C373.817,962.861 372.54,966.44 373.96,969.434C374.986,971.598 377.14,972.865 379.385,972.865C380.247,972.865 381.122,972.679 381.951,972.286ZM353.797,994.805C352.684,994.805 351.559,994.496 350.554,993.849C347.768,992.055 346.963,988.342 348.757,985.556C351.516,981.273 355.418,976.841 360.043,972.739C362.522,970.541 366.314,970.77 368.513,973.248C370.711,975.727 370.484,979.519 368.005,981.718C364.188,985.103 361.021,988.676 358.847,992.052C357.7,993.834 355.769,994.805 353.797,994.805Z" style="fill:rgb(249,247,245);fill-rule:nonzero;"/>
            <path d="M443.793,1042.58C438.899,1042.58 434.932,1046.54 434.932,1051.44C434.932,1056.33 438.899,1060.3 443.793,1060.3C448.687,1060.3 452.655,1056.33 452.655,1051.44C452.655,1046.54 448.687,1042.58 443.793,1042.58ZM378.782,1051.44C378.782,1056.33 374.815,1060.3 369.921,1060.3C365.027,1060.3 361.06,1056.33 361.06,1051.44C361.06,1046.54 365.027,1042.58 369.921,1042.58C374.815,1042.58 378.782,1046.54 378.782,1051.44Z" style="fill:rgb(97,81,67);fill-rule:nonzero;"/>
            <path d="M422.796,1081.1C422.796,1087.84 415.66,1093.31 406.857,1093.31C398.055,1093.31 390.919,1087.84 390.919,1081.1C390.919,1074.35 398.055,1068.89 406.857,1068.89C415.66,1068.89 422.796,1074.35 422.796,1081.1Z" style="fill:rgb(97,81,67);fill-rule:nonzero;"/>
            <path d="M534.663,935.611C535.365,928.911 532.712,921.942 527.732,917.404C516.735,907.381 501.341,912.361 491.432,921.124C477.392,933.541 471.275,954.221 476.3,972.277C501.724,974.407 532.006,960.985 534.663,935.611ZM279.051,935.611C278.35,928.911 281.002,921.942 285.982,917.404C296.979,907.381 312.373,912.361 322.282,921.124C336.322,933.541 342.439,954.221 337.414,972.277C311.99,974.407 281.708,960.985 279.051,935.611Z" style="fill:rgb(246,192,162);fill-rule:nonzero;"/>
            <path d="M539.23,965.327C527.371,980.422 506.633,989.714 485.336,989.318C482.318,989.288 479.546,991.041 478.334,993.816C477.123,996.592 477.699,999.824 479.796,1002.01C488.453,1011.03 493.856,1032.25 488.1,1049.45C482.315,1066.73 468.397,1079.53 457.741,1087.22C443.468,1097.53 425.45,1105.29 406.857,1109.18C388.264,1105.29 370.246,1097.53 355.973,1087.22C345.317,1079.53 331.399,1066.73 325.615,1049.45C319.858,1032.25 325.261,1011.03 333.918,1002.01C336.015,999.824 336.592,996.592 335.38,993.816C334.185,991.08 331.485,989.317 328.507,989.317C328.464,989.317 328.421,989.317 328.378,989.318C307.114,989.69 286.343,980.422 274.484,965.327C261.786,949.164 259.545,926.36 269.037,909.874C276.095,897.613 290.484,889.376 304.842,889.376C309.563,889.376 314.035,890.269 318.132,892.03C327.513,896.063 335.92,904.729 341.804,916.428C347.422,927.6 350.454,940.374 353.385,952.728C353.912,954.948 355.421,956.807 357.485,957.78C359.549,958.753 361.944,958.732 363.991,957.726C378.282,950.701 393.906,946.672 406.857,946.672C419.808,946.672 435.432,950.701 449.723,957.726C451.77,958.732 454.165,958.753 456.229,957.78C458.293,956.807 459.802,954.948 460.329,952.728C463.261,940.374 466.292,927.6 471.91,916.429C477.794,904.729 486.201,896.063 495.582,892.03C499.68,890.269 504.151,889.376 508.873,889.376C523.229,889.376 537.62,897.613 544.678,909.874C554.169,926.36 551.929,949.164 539.23,965.327ZM557.678,902.39C547.88,885.372 528.724,874.376 508.873,874.376C502.102,874.376 495.637,875.679 489.658,878.25C473.484,885.204 463.792,899.185 458.509,909.69C453.519,919.612 450.452,930.083 447.86,940.462C437.444,936.216 422.615,931.672 406.857,931.672C391.099,931.672 376.27,936.216 365.854,940.462C363.262,930.083 360.195,919.613 355.205,909.69C349.922,899.185 340.23,885.204 324.057,878.25C318.077,875.679 311.612,874.376 304.842,874.376C284.991,874.376 265.834,885.372 256.036,902.39C243.569,924.047 246.304,953.739 262.689,974.594C274.973,990.23 293.935,1000.57 314.939,1003.49C307.188,1019.31 306.581,1039.84 311.39,1054.21C313.855,1061.57 317.651,1068.73 322.654,1075.54L293.651,1085.25L296.826,1094.73L329.474,1083.8C333.372,1088.03 337.779,1092.08 342.632,1095.92L324.14,1116.98L331.653,1123.58L350.738,1101.84C366.488,1112.41 385.724,1120.3 405.402,1124.19C405.882,1124.28 406.37,1124.33 406.857,1124.33C407.344,1124.33 407.831,1124.28 408.311,1124.19C428.066,1120.28 447.377,1112.35 463.16,1101.72L482.351,1123.58L489.864,1116.98L471.253,1095.78C476.067,1091.96 480.438,1087.94 484.307,1083.73L517.177,1094.73L520.353,1085.25L491.119,1075.46C496.094,1068.68 499.869,1061.55 502.324,1054.21C507.133,1039.84 506.527,1019.31 498.775,1003.49C519.779,1000.57 538.741,990.23 551.025,974.594C567.41,953.738 570.145,924.047 557.678,902.39Z" style="fill:rgb(153,152,152);fill-rule:nonzero;"/>
        </g>
    </g>
</svg>
