<?xml version="1.0" encoding="UTF-8" standalone="no"?>
<!DOCTYPE svg PUBLIC "-//W3C//DTD SVG 1.1//EN" "http://www.w3.org/Graphics/SVG/1.1/DTD/svg11.dtd">
<svg width="100%" height="100%" viewBox="0 0 128 104" version="1.1" xmlns="http://www.w3.org/2000/svg" xmlns:xlink="http://www.w3.org/1999/xlink" xml:space="preserve" xmlns:serif="http://www.serif.com/" style="fill-rule:evenodd;clip-rule:evenodd;stroke-linejoin:round;stroke-miterlimit:2;">
    <g transform="matrix(1,0,0,1,-4651.11,-1628.54)">
        <g transform="matrix(0.453515,0,0,0.453515,3971.78,1222.04)">
            <path d="M1553.08,964.778C1558.83,955.873 1565.39,947.209 1573.23,939.616L1573.57,938.914C1572.41,931.841 1571.2,924.648 1567.84,918.195C1564.48,911.742 1558.58,906.021 1551.01,904.349C1541.03,902.147 1530.92,907.281 1522.88,913.138C1513.46,920.004 1504.54,929.612 1505.48,940.625C1506.19,948.876 1512.5,956.019 1520.14,960.411C1526.03,963.795 1539.47,968.138 1549.33,970.884C1550.6,968.725 1551.85,966.681 1553.08,964.778Z" style="fill:rgb(97,81,67);fill-rule:nonzero;"/>
            <path d="M1755.19,913.138C1747.15,907.281 1737.04,902.147 1727.06,904.349C1719.49,906.021 1713.59,911.742 1710.23,918.195C1706.87,924.648 1705.66,931.841 1704.5,938.914L1705.03,940.013C1712.69,947.511 1719.12,956.028 1724.78,964.778C1726,966.683 1727.26,968.73 1728.53,970.891C1738.44,968.146 1752.04,963.798 1757.93,960.411C1765.57,956.019 1771.88,948.876 1772.59,940.625C1773.53,929.612 1764.61,920.004 1755.19,913.138Z" style="fill:rgb(97,81,67);fill-rule:nonzero;"/>
            <path d="M1724.78,964.778C1707.61,938.188 1683.28,913.694 1638.93,913.694C1594.57,913.694 1570.25,938.188 1553.08,964.778C1535.61,991.824 1513.02,1046.74 1530.19,1074.54C1547.36,1102.33 1587.42,1116.83 1638.93,1116.83C1690.44,1116.83 1730.5,1102.33 1747.67,1074.54C1764.84,1046.74 1742.24,991.824 1724.78,964.778Z" style="fill:rgb(232,230,229);fill-rule:nonzero;"/>
            <path d="M1609.12,950.853C1610.05,950.414 1610.96,950.021 1611.84,949.686C1614.94,948.505 1616.49,945.039 1615.31,941.942C1614.13,938.846 1610.66,937.293 1607.57,938.474C1606.39,938.92 1605.19,939.437 1603.98,940.01C1600.99,941.43 1599.71,945.009 1601.13,948.003C1602.16,950.167 1604.31,951.433 1606.55,951.433C1607.42,951.433 1608.29,951.247 1609.12,950.853ZM1580.97,973.373C1579.85,973.373 1578.73,973.064 1577.72,972.417C1574.94,970.624 1574.13,966.911 1575.93,964.125C1578.68,959.84 1582.59,955.408 1587.21,951.307C1589.69,949.11 1593.48,949.336 1595.68,951.815C1597.88,954.295 1597.65,958.087 1595.17,960.286C1591.36,963.67 1588.19,967.244 1586.02,970.62C1584.87,972.401 1582.94,973.373 1580.97,973.373Z" style="fill:rgb(249,247,245);fill-rule:nonzero;"/>
            <path d="M1703.5,1031.77C1710.2,1025.47 1711.67,1014.9 1708.69,1006.2C1702.86,989.208 1676.35,968.229 1658.97,982.334C1652.84,987.312 1650.96,996.042 1651.89,1003.88C1653.47,1017.03 1662.28,1029.1 1674.35,1034.61C1683.77,1038.92 1695.96,1038.87 1703.5,1031.77ZM1574.23,1032.2C1567.41,1026.02 1565.74,1015.48 1568.56,1006.73C1574.05,989.63 1600.16,968.149 1617.8,981.921C1624.03,986.781 1626.08,995.473 1625.29,1003.32C1623.97,1016.51 1615.39,1028.74 1603.43,1034.48C1594.09,1038.97 1581.91,1039.15 1574.23,1032.2Z" style="fill:rgb(97,81,67);fill-rule:nonzero;"/>
            <path d="M1661.06,1000.88C1661.06,1007.73 1666.61,1013.28 1673.45,1013.28C1680.3,1013.28 1685.85,1007.73 1685.85,1000.88C1685.85,994.038 1680.3,988.489 1673.45,988.489C1666.61,988.489 1661.06,994.038 1661.06,1000.88ZM1616.2,1000.88C1616.2,1007.73 1610.65,1013.28 1603.8,1013.28C1596.96,1013.28 1591.41,1007.73 1591.41,1000.88C1591.41,994.038 1596.96,988.489 1603.8,988.489C1610.65,988.489 1616.2,994.038 1616.2,1000.88Z" style="fill:rgb(232,230,229);fill-rule:nonzero;"/>
            <path d="M1658.36,1086.82C1654.09,1086.82 1649.84,1085.67 1646.14,1083.45C1643.15,1081.65 1640.62,1079.22 1638.7,1076.36C1636.78,1079.22 1634.25,1081.65 1631.27,1083.45C1625.82,1086.73 1619.17,1087.67 1613.02,1086.04C1611.15,1085.54 1610.03,1083.63 1610.53,1081.76C1611.03,1079.89 1612.94,1078.77 1614.81,1079.27C1619.08,1080.41 1623.88,1079.72 1627.66,1077.45C1631.44,1075.18 1634.3,1071.25 1635.29,1066.96C1635.73,1065.07 1636.3,1057.46 1639.22,1058.5C1641.81,1059.42 1641.61,1064.81 1642.11,1066.95C1643.11,1071.25 1645.96,1075.18 1649.75,1077.45C1653.53,1079.72 1658.33,1080.4 1662.59,1079.27C1664.46,1078.77 1666.38,1079.89 1666.88,1081.76C1667.37,1083.63 1666.26,1085.54 1664.39,1086.04C1662.41,1086.56 1660.38,1086.82 1658.36,1086.82Z" style="fill:rgb(97,81,67);fill-rule:nonzero;"/>
            <path d="M1654.24,1057.12C1654.24,1061.71 1647.38,1069.88 1638.93,1069.88C1630.47,1069.88 1623.62,1061.71 1623.62,1057.12C1623.62,1052.53 1630.47,1048.81 1638.93,1048.81C1647.38,1048.81 1654.24,1052.53 1654.24,1057.12Z" style="fill:rgb(97,81,67);fill-rule:nonzero;"/>
            <path d="M1638.93,1099.46C1617.67,1099.46 1600.38,1082.17 1600.38,1060.92L1600.38,1051.73C1600.38,1048.96 1602.62,1046.73 1605.38,1046.73C1608.15,1046.73 1610.38,1048.96 1610.38,1051.73L1610.38,1060.92C1610.38,1076.65 1623.19,1089.46 1638.93,1089.46C1654.66,1089.46 1667.47,1076.65 1667.47,1060.92L1667.47,1051.73C1667.47,1048.96 1669.71,1046.73 1672.47,1046.73C1675.23,1046.73 1677.47,1048.96 1677.47,1051.73L1677.47,1060.92C1677.47,1082.17 1660.18,1099.46 1638.93,1099.46Z" style="fill:rgb(97,81,67);fill-rule:nonzero;"/>
            <path d="M1543.71,976.234C1534.98,974.201 1525.07,971.897 1516.4,966.913C1505.73,960.778 1498.86,951.19 1498.01,941.263C1497,929.388 1504.07,917.567 1518.47,907.076C1530.76,898.118 1542.25,894.739 1552.62,897.026C1561.71,899.031 1569.68,905.484 1574.49,914.73C1578.44,922.298 1579.78,930.479 1580.97,937.696L1566.17,940.132C1565.12,933.726 1564.03,927.101 1561.19,921.66C1558.47,916.438 1554.06,912.704 1549.39,911.673C1543.4,910.351 1535.97,912.883 1527.3,919.2C1521.63,923.329 1512.23,931.521 1512.95,939.987C1513.38,944.943 1517.56,950.278 1523.88,953.908C1530.63,957.789 1539.01,959.739 1547.11,961.625L1543.71,976.234Z" style="fill:rgb(73,72,38);fill-rule:nonzero;"/>
            <path d="M1734.36,976.234L1730.95,961.625C1739.06,959.739 1747.44,957.789 1754.19,953.908C1760.51,950.277 1764.69,944.943 1765.12,939.987C1765.84,931.521 1756.44,923.329 1750.77,919.199C1742.1,912.884 1734.67,910.352 1728.68,911.673C1724.01,912.705 1719.6,916.438 1716.88,921.659C1714.04,927.106 1712.95,933.728 1711.9,940.131L1697.1,937.697C1698.29,930.482 1699.63,922.304 1703.58,914.73C1708.39,905.485 1716.36,899.032 1725.45,897.026C1735.82,894.737 1747.31,898.118 1759.6,907.076C1774,917.565 1781.07,929.387 1780.06,941.263C1779.21,951.189 1772.34,960.778 1761.67,966.913C1752.99,971.897 1743.09,974.201 1734.36,976.234Z" style="fill:rgb(73,72,38);fill-rule:nonzero;"/>
            <path d="M1638.93,921.194C1595.69,921.194 1573.71,946.66 1559.38,968.847C1541.72,996.191 1522.26,1047.44 1536.57,1070.59C1551.77,1095.21 1589.08,1109.33 1638.93,1109.33C1688.77,1109.33 1726.08,1095.21 1741.29,1070.59C1755.59,1047.44 1736.13,996.191 1718.47,968.847C1704.15,946.66 1682.16,921.194 1638.93,921.194ZM1638.93,1124.33C1582.96,1124.33 1542.07,1108.05 1523.81,1078.48C1515.1,1064.38 1514.27,1043.25 1521.42,1017.38C1526.67,998.347 1536.15,977.163 1546.78,960.71C1561.89,937.307 1587.88,906.194 1638.93,906.194C1689.97,906.194 1715.96,937.307 1731.08,960.71C1741.7,977.163 1751.18,998.347 1756.44,1017.38C1763.58,1043.25 1762.76,1064.38 1754.05,1078.48C1735.78,1108.05 1694.9,1124.33 1638.93,1124.33Z" style="fill:rgb(212,212,214);fill-rule:nonzero;"/>
        </g>
    </g>
</svg>
