<?xml version="1.0" encoding="UTF-8" standalone="no"?>
<!DOCTYPE svg PUBLIC "-//W3C//DTD SVG 1.1//EN" "http://www.w3.org/Graphics/SVG/1.1/DTD/svg11.dtd">
<svg width="100%" height="100%" viewBox="0 0 128 88" version="1.1" xmlns="http://www.w3.org/2000/svg" xmlns:xlink="http://www.w3.org/1999/xlink" xml:space="preserve" xmlns:serif="http://www.serif.com/" style="fill-rule:evenodd;clip-rule:evenodd;stroke-linejoin:round;stroke-miterlimit:2;">
    <g transform="matrix(1,0,0,1,-56.4771,-103.531)">
        <g transform="matrix(0.38451,0,0,0.38451,-35.9638,-9.02113)">
            <path d="M406.857,319.398C346.213,319.398 301.389,401.889 301.389,449.384C301.389,496.879 356.76,511.877 406.857,511.877C456.954,511.877 512.325,496.879 512.325,449.384C512.325,401.889 476.73,319.398 406.857,319.398Z" style="fill:rgb(246,178,162);fill-rule:nonzero;"/>
            <path d="M464.637,457.447C464.637,481.233 438.768,488.21 406.857,488.21C374.946,488.21 349.077,481.233 349.077,457.447C349.077,433.662 374.946,414.38 406.857,414.38C438.768,414.38 464.637,433.662 464.637,457.447Z" style="fill:rgb(239,132,110);fill-rule:nonzero;"/>
            <path d="M427.516,442.529C420.902,442.529 415.54,447.891 415.54,454.505C415.54,461.119 420.902,466.481 427.516,466.481C434.13,466.481 439.492,461.119 439.492,454.505C439.492,447.891 434.13,442.529 427.516,442.529ZM399.367,454.505C399.367,461.119 394.005,466.481 387.391,466.481C380.777,466.481 375.415,461.119 375.415,454.505C375.415,447.891 380.777,442.529 387.391,442.529C394.005,442.529 399.367,447.891 399.367,454.505Z" style="fill:rgb(97,81,67);fill-rule:nonzero;"/>
            <path d="M442.379,396.514C436.946,396.514 432.542,400.918 432.542,406.351C432.542,411.784 436.946,416.188 442.379,416.188C447.812,416.188 452.216,411.784 452.216,406.351C452.216,400.918 447.812,396.514 442.379,396.514ZM381.173,406.351C381.173,411.784 376.768,416.188 371.336,416.188C365.903,416.188 361.498,411.784 361.498,406.351C361.498,400.918 365.903,396.514 371.336,396.514C376.768,396.514 381.173,400.918 381.173,406.351Z" style="fill:rgb(97,81,67);fill-rule:nonzero;"/>
            <path d="M319.033,386.881L319.037,386.876C328.782,368.145 342.161,350.428 358.156,337.85C357.607,327.762 353.58,307.163 330.393,300.941C312.162,296.049 260.519,314.125 248.655,327.308C256.565,358.948 281.778,389.464 319.033,386.881Z" style="fill:rgb(246,178,162);fill-rule:nonzero;"/>
            <path d="M342.85,352.228C339.826,347.026 335.471,342.593 330.237,339.619C312.502,329.543 290.076,337.094 272.556,343.731C280.6,353.166 285.544,359.45 296.077,365.991C303.313,370.485 314.811,374.862 325.183,376.005C330.364,367.546 336.284,359.481 342.85,352.228Z" style="fill:rgb(246,149,139);fill-rule:nonzero;"/>
            <path d="M483.321,300.941C460.341,306.936 455.168,325.286 454.009,333.825C472.956,346.442 487.331,365.951 497.066,386.726L497.072,386.732C534.327,389.315 557.149,358.948 565.059,327.308C553.194,314.125 501.586,296.176 483.321,300.941Z" style="fill:rgb(246,178,162);fill-rule:nonzero;"/>
            <path d="M474.508,352.228C477.531,347.026 481.886,342.593 487.12,339.619C504.856,329.543 527.281,337.094 544.801,343.731C536.757,353.166 531.813,359.45 521.28,365.991C514.044,370.485 502.546,374.862 492.174,376.005C486.994,367.546 481.073,359.481 474.508,352.228Z" style="fill:rgb(246,149,139);fill-rule:nonzero;"/>
            <path d="M501.83,379.359C498.87,373.472 495.598,367.789 492.041,362.432C485.02,351.856 475.487,340.355 463.113,330.997C463.66,325.046 467.064,312.933 485.214,308.198C499.465,304.481 542.464,318.934 556.628,329.763C546.114,365.875 522.399,379.021 501.83,379.359ZM406.857,504.377C383.874,504.377 308.889,500.411 308.889,449.384C308.889,426.29 320.122,395.487 337.504,370.912C349.131,354.474 373.602,326.898 406.857,326.898C442.883,326.898 466.27,350.733 479.545,370.729C494.902,393.86 504.825,424.734 504.825,449.384C504.825,500.411 429.839,504.377 406.857,504.377ZM257.096,329.755C271.272,318.927 314.257,304.481 328.5,308.198C348.133,313.32 350.487,328.399 350.64,334.256C341.622,341.805 333.09,351.177 325.258,362.25C321.373,367.742 317.774,373.539 314.497,379.505C292.271,379.225 267.3,364.108 257.096,329.755ZM570.634,322.291C557.279,307.452 502.608,288.159 481.428,293.684C461.619,298.852 452.797,311.38 449.566,322.362C437.496,316.005 423.334,311.898 406.857,311.898C392.301,311.898 377.91,316.217 364.31,324.445C361.27,312.627 352.522,298.963 332.286,293.684C311.111,288.163 256.436,307.452 243.081,322.291L240.412,325.256L241.379,329.127C245.905,347.229 255.251,363.658 267.696,375.386C279.144,386.176 292.647,392.524 307.265,394.119C298.821,413.216 293.889,432.942 293.889,449.384C293.889,473.859 307.096,493.16 332.081,505.198C356.406,516.917 386.17,519.377 406.857,519.377C427.543,519.377 457.309,516.917 481.633,505.198C506.619,493.16 519.825,473.859 519.825,449.384C519.825,432.015 515.675,412.503 508.386,394.012C523.011,392.479 536.313,386.093 547.343,375.187C558.888,363.772 567.763,347.414 572.335,329.127L573.303,325.256L570.634,322.291Z" style="fill:rgb(238,147,128);fill-rule:nonzero;"/>
        </g>
    </g>
</svg>
