<?xml version="1.0" encoding="UTF-8" standalone="no"?>
<!DOCTYPE svg PUBLIC "-//W3C//DTD SVG 1.1//EN" "http://www.w3.org/Graphics/SVG/1.1/DTD/svg11.dtd">
<svg width="100%" height="100%" viewBox="0 0 98 128" version="1.1" xmlns="http://www.w3.org/2000/svg" xmlns:xlink="http://www.w3.org/1999/xlink" xml:space="preserve" xmlns:serif="http://www.serif.com/" style="fill-rule:evenodd;clip-rule:evenodd;stroke-linejoin:round;stroke-miterlimit:2;">
    <g transform="matrix(1,0,0,1,-3218.75,-1404.21)">
        <g transform="matrix(0.392974,0,0,0.392974,2784.88,1090.38)">
            <path d="M1277.64,948.133C1277.64,948.133 1304.26,922.018 1314.76,882.287C1325.27,842.556 1317.63,810.812 1301.39,806.615C1285.15,802.419 1262.22,824.756 1251.71,857.489C1241.2,890.222 1246.93,936.517 1246.93,936.517L1208.71,936.517C1208.71,936.517 1214.44,890.222 1203.93,857.489C1193.42,824.756 1170.49,802.419 1154.25,806.615C1138.01,810.812 1130.37,842.556 1140.88,882.287C1151.39,922.018 1178,948.133 1178,948.133C1178,948.133 1117.33,1013.26 1138.97,1067.43C1149.47,1093.74 1183.87,1116.83 1227.82,1116.83C1271.77,1116.83 1306.17,1093.74 1316.68,1067.43C1338.31,1013.26 1277.64,948.133 1277.64,948.133Z" style="fill:rgb(232,230,229);fill-rule:nonzero;"/>
            <path d="M1207.77,968.361C1208.71,967.92 1209.62,967.527 1210.49,967.193C1213.59,966.013 1215.14,962.546 1213.96,959.449C1212.78,956.353 1209.31,954.799 1206.22,955.982C1205.05,956.425 1203.85,956.942 1202.64,957.517C1199.64,958.936 1198.36,962.514 1199.78,965.508C1200.81,967.673 1202.96,968.94 1205.21,968.94C1206.07,968.94 1206.94,968.755 1207.77,968.361ZM1179.62,990.88C1178.51,990.88 1177.38,990.571 1176.38,989.924C1173.59,988.13 1172.79,984.417 1174.58,981.631C1177.34,977.346 1181.24,972.914 1185.87,968.815C1188.34,966.618 1192.14,966.843 1194.34,969.323C1196.53,971.802 1196.31,975.594 1193.83,977.793C1190.01,981.177 1186.84,984.751 1184.67,988.128C1183.52,989.909 1181.59,990.88 1179.62,990.88Z" style="fill:rgb(249,247,245);fill-rule:nonzero;"/>
            <path d="M1244.85,1073.11C1243.29,1071.96 1241.1,1072.3 1239.95,1073.85C1238.9,1075.29 1236.93,1076.12 1235.15,1075.88C1234.29,1075.77 1232.99,1075.31 1231.32,1072.87L1231.32,1060.48C1231.32,1058.55 1229.75,1056.98 1227.82,1056.98C1225.89,1056.98 1224.32,1058.55 1224.32,1060.48L1224.32,1072.92C1223.57,1074.13 1222.29,1075.64 1220.49,1075.88C1218.72,1076.12 1216.74,1075.29 1215.69,1073.85C1214.54,1072.29 1212.35,1071.96 1210.79,1073.11C1209.24,1074.25 1208.9,1076.44 1210.05,1078C1212.32,1081.09 1216.04,1082.93 1219.85,1082.93C1220.38,1082.93 1220.9,1082.89 1221.43,1082.82C1223.83,1082.49 1226.02,1081.39 1227.87,1079.61C1229.75,1081.44 1231.85,1082.5 1234.21,1082.82C1238.53,1083.41 1243.01,1081.52 1245.59,1078C1246.74,1076.44 1246.4,1074.25 1244.85,1073.11Z" style="fill:rgb(97,81,67);fill-rule:nonzero;"/>
            <path d="M1239.75,1056.89C1239.75,1061.47 1234.41,1067.41 1227.82,1067.41C1221.23,1067.41 1215.89,1061.47 1215.89,1056.89C1215.89,1052.31 1221.23,1048.6 1227.82,1048.6C1234.41,1048.6 1239.75,1052.31 1239.75,1056.89Z" style="fill:rgb(97,81,67);fill-rule:nonzero;"/>
            <path d="M1254.63,1033.09C1254.63,1039 1259.42,1043.79 1265.32,1043.79C1271.23,1043.79 1276.02,1039 1276.02,1033.09C1276.02,1027.19 1271.23,1022.4 1265.32,1022.4C1259.42,1022.4 1254.63,1027.19 1254.63,1033.09ZM1201.01,1033.09C1201.01,1039 1196.23,1043.79 1190.32,1043.79C1184.41,1043.79 1179.63,1039 1179.63,1033.09C1179.63,1027.19 1184.41,1022.4 1190.32,1022.4C1196.23,1022.4 1201.01,1027.19 1201.01,1033.09Z" style="fill:rgb(97,81,67);fill-rule:nonzero;"/>
            <path d="M1286.24,839.737C1283.86,841.667 1282.41,844.296 1281.08,846.888C1267.96,872.579 1265.85,897.536 1265.91,929.333C1280.74,905.118 1292.03,879.232 1299.41,852.511C1300.16,849.787 1300.88,846.979 1300.44,844.203C1299.99,841.427 1298.15,838.652 1295.15,837.683C1292.12,836.7 1288.61,837.806 1286.24,839.737ZM1169.41,839.737C1171.78,841.667 1173.24,844.296 1174.56,846.888C1187.68,872.579 1189.79,897.536 1189.73,929.333C1174.9,905.118 1163.62,879.232 1156.23,852.511C1155.48,849.787 1154.76,846.979 1155.2,844.203C1155.65,841.427 1157.49,838.652 1160.49,837.683C1163.52,836.7 1167.03,837.806 1169.41,839.737Z" style="fill:rgb(246,176,163);fill-rule:nonzero;"/>
            <path d="M1227.72,1109.33C1195.9,1109.33 1157.55,1093.98 1145.83,1064.65C1126.23,1015.57 1182.81,953.86 1183.38,953.246C1186.16,950.271 1186.05,945.628 1183.15,942.78C1182.9,942.534 1157.89,917.676 1148.03,880.369C1143.12,861.824 1140.47,834.905 1149.16,820.077C1150.55,817.698 1152.87,814.692 1156.03,813.877C1156.72,813.699 1157.45,813.609 1158.22,813.609C1169.64,813.609 1187.83,832.162 1196.69,859.782C1206.56,890.519 1201.22,935.15 1201.17,935.595C1200.9,937.729 1201.57,939.873 1202.99,941.484C1204.42,943.094 1206.46,944.017 1208.61,944.017L1246.83,944.017C1248.98,944.017 1251.02,943.094 1252.45,941.484C1253.87,939.874 1254.54,937.73 1254.27,935.597C1254.22,935.15 1248.88,890.519 1258.75,859.782C1267.62,832.162 1285.8,813.609 1297.22,813.609C1297.99,813.609 1298.72,813.699 1299.41,813.877C1302.57,814.692 1304.89,817.699 1306.29,820.077C1314.97,834.907 1312.32,861.824 1307.41,880.369C1297.59,917.497 1272.54,942.539 1272.29,942.781C1269.39,945.626 1269.29,950.267 1272.05,953.242C1272.63,953.86 1329.22,1015.57 1309.61,1064.65C1297.89,1093.98 1259.55,1109.33 1227.72,1109.33ZM1326.33,1061.71L1351.57,1057.06L1348.86,1042.31L1328.67,1046.02C1330.59,1003.99 1299.64,962.657 1287.61,948.27C1296.13,938.448 1313.65,915.438 1321.92,884.205C1329.57,855.256 1328.57,828.45 1319.23,812.499C1315.17,805.565 1309.62,801.02 1303.16,799.353C1301.25,798.859 1299.25,798.609 1297.22,798.609C1277.18,798.609 1254.99,822.407 1244.47,855.196C1236.21,880.903 1237.41,913.762 1238.58,929.017L1216.86,929.017C1218.03,913.762 1219.23,880.903 1210.97,855.196C1200.45,822.407 1178.26,798.609 1158.22,798.609C1156.19,798.609 1154.19,798.859 1152.28,799.353C1145.83,801.02 1140.27,805.565 1136.21,812.498C1126.87,828.449 1125.87,855.255 1133.52,884.205C1141.79,915.438 1159.31,938.448 1167.83,948.27C1155.81,962.653 1124.87,1003.96 1126.77,1045.99L1106.78,1042.31L1104.07,1057.06L1129.1,1061.67C1129.71,1064.01 1130.45,1066.34 1131.31,1068.66L1108.13,1076.25L1112.8,1090.51L1138.22,1082.18C1155.02,1107.51 1189.74,1124.33 1227.72,1124.33C1265.72,1124.33 1300.48,1107.49 1317.26,1082.13L1344.24,1090.97L1348.91,1076.71L1324.15,1068.6C1325,1066.32 1325.72,1064.01 1326.33,1061.71Z" style="fill:rgb(212,212,214);fill-rule:nonzero;"/>
        </g>
    </g>
</svg>
