<?xml version="1.0" encoding="UTF-8" standalone="no"?>
<!DOCTYPE svg PUBLIC "-//W3C//DTD SVG 1.1//EN" "http://www.w3.org/Graphics/SVG/1.1/DTD/svg11.dtd">
<svg width="100%" height="100%" viewBox="0 0 128 121" version="1.1" xmlns="http://www.w3.org/2000/svg" xmlns:xlink="http://www.w3.org/1999/xlink" xml:space="preserve" xmlns:serif="http://www.serif.com/" style="fill-rule:evenodd;clip-rule:evenodd;stroke-linejoin:round;stroke-miterlimit:2;">
    <g transform="matrix(1,0,0,1,-1703.08,-1603.53)">
        <g transform="matrix(0.524258,0,0,0.524258,1338.73,1134.74)">
            <path d="M739.19,955.107C748.003,941.393 764.588,926.234 782.969,916.738C760.431,908.424 733.357,896.782 703.787,903.918C700.618,935.23 702.454,965.612 717.345,993.673C724.213,979.4 732.492,965.529 739.19,955.107Z" style="fill:rgb(97,81,67);fill-rule:nonzero;"/>
            <path d="M759.19,932.878C748.813,927.091 736.809,924.192 724.937,924.851C725.144,938.773 727.513,952.618 732.872,965.245C735.065,961.616 737.198,958.206 739.19,955.107C743.921,947.745 750.905,939.973 759.19,932.878Z" style="fill:rgb(247,239,227);fill-rule:nonzero;"/>
            <path d="M894.962,955.107C901.659,965.529 909.938,979.4 916.807,993.673C931.698,965.612 933.533,935.23 930.364,903.918C900.794,896.782 873.72,908.424 851.183,916.738C869.563,926.234 886.148,941.393 894.962,955.107Z" style="fill:rgb(97,81,67);fill-rule:nonzero;"/>
            <path d="M875.824,933.621C883.732,940.513 890.395,948.001 894.962,955.107C897.331,958.794 899.9,962.919 902.533,967.335C908.544,954.156 911.154,939.543 911.373,924.851C899.004,924.164 886.491,927.339 875.824,933.621Z" style="fill:rgb(247,239,227);fill-rule:nonzero;"/>
            <path d="M817.076,1116.83C917.383,1116.83 930.364,1062.76 930.364,1038.68C930.364,1014.6 909.123,977.143 894.962,955.107C880.801,933.071 846.578,907.297 817.076,907.297C787.573,907.297 753.351,933.071 739.19,955.107C725.029,977.143 703.787,1014.6 703.787,1038.68C703.787,1062.76 716.768,1116.83 817.076,1116.83Z" style="fill:rgb(198,171,146);fill-rule:nonzero;"/>
            <path d="M799.349,941.174C800.273,940.735 801.188,940.343 802.069,940.007C805.165,938.826 806.718,935.359 805.536,932.263C804.356,929.167 800.89,927.612 797.792,928.795C796.62,929.242 795.413,929.759 794.206,930.331C791.213,931.751 789.936,935.33 791.356,938.324C792.383,940.487 794.536,941.754 796.782,941.754C797.643,941.754 798.518,941.567 799.349,941.174ZM771.193,963.693C770.081,963.693 768.955,963.384 767.951,962.737C765.164,960.943 764.36,957.23 766.155,954.444C768.913,950.16 772.816,945.728 777.439,941.628C779.921,939.43 783.711,939.658 785.91,942.136C788.108,944.616 787.88,948.408 785.401,950.607C781.585,953.99 778.418,957.564 776.244,960.941C775.097,962.722 773.165,963.693 771.193,963.693Z" style="fill:rgb(249,247,245);fill-rule:nonzero;"/>
            <path d="M899.682,1044.6C896.577,1029.28 887.132,1012.09 876.67,999.673C862.509,982.871 844.611,975.828 831.144,983.339C817.678,990.849 825.73,1009.06 842.251,1040.6C857.97,1070.61 840.214,1090.41 818.465,1092.27L818.465,1078.56C818.465,1076.71 816.962,1075.21 815.109,1075.21C813.255,1075.21 811.753,1076.71 811.753,1078.56L811.753,1092.27C789.839,1090.43 772.242,1070.63 787.967,1040.6C804.488,1009.06 812.54,990.849 799.073,983.339C785.607,975.828 769.282,981.181 755.121,997.983C744.659,1010.4 732.109,1029.06 730.536,1044.6C728.963,1060.12 737.616,1084.54 765.071,1110.51C779.07,1114.46 796.15,1116.83 817.076,1116.83C835.104,1116.83 853.937,1114.5 863.089,1112.06C884.734,1099.94 905.189,1071.77 899.682,1044.6Z" style="fill:rgb(97,81,67);fill-rule:nonzero;"/>
            <path d="M856.215,1004.97C851.352,1004.97 847.41,1008.91 847.41,1013.77C847.41,1018.63 851.352,1022.58 856.215,1022.58C861.078,1022.58 865.021,1018.63 865.021,1013.77C865.021,1008.91 861.078,1004.97 856.215,1004.97ZM782.808,1013.77C782.808,1018.63 778.865,1022.58 774.002,1022.58C769.139,1022.58 765.197,1018.63 765.197,1013.77C765.197,1008.91 769.139,1004.97 774.002,1004.97C778.865,1004.97 782.808,1008.91 782.808,1013.77Z" style="fill:rgb(247,239,227);fill-rule:nonzero;"/>
            <path d="M833.597,1066.48C833.597,1074.3 825.32,1080.64 815.109,1080.64C804.898,1080.64 796.621,1074.3 796.621,1066.48C796.621,1058.66 804.898,1052.32 815.109,1052.32C825.32,1052.32 833.597,1058.66 833.597,1066.48Z" style="fill:rgb(97,81,67);fill-rule:nonzero;"/>
            <path d="M923.422,997.208L910.173,990.175C921.781,968.307 926.022,942.768 923.401,910.158C900.258,906.378 878.452,914.545 859.053,921.809C857.269,922.477 855.51,923.135 853.778,923.774L848.587,909.701C850.296,909.071 852.032,908.42 853.794,907.761C875.526,899.624 902.576,889.494 932.124,896.627L937.291,897.874L937.826,903.163C941.706,941.505 937.129,971.388 923.422,997.208Z" style="fill:rgb(81,66,54);fill-rule:nonzero;"/>
            <path d="M710.729,997.208C697.023,971.388 692.446,941.505 696.325,903.163L696.86,897.874L702.028,896.627C731.576,889.495 758.624,899.623 780.358,907.761C782.119,908.42 783.855,909.071 785.565,909.701L780.373,923.774C778.641,923.135 776.883,922.477 775.098,921.809C755.699,914.546 733.891,906.381 710.75,910.158C708.129,942.768 712.37,968.307 723.978,990.175L710.729,997.208Z" style="fill:rgb(81,66,54);fill-rule:nonzero;"/>
            <path d="M817.076,914.797C796.278,914.797 762.553,932.624 745.499,959.162C723.757,992.994 711.287,1021.98 711.287,1038.68C711.287,1048.08 713.489,1066.16 728.24,1081.61C745.809,1100 775.697,1109.33 817.075,1109.33C858.454,1109.33 888.343,1100 905.911,1081.61C920.662,1066.16 922.864,1048.08 922.864,1038.68C922.864,1021.98 910.395,992.994 888.652,959.162C871.598,932.624 837.874,914.797 817.076,914.797ZM817.075,1124.33C704.997,1124.33 696.287,1058.77 696.287,1038.68C696.287,1027.22 701.041,1000.6 732.88,951.052C748.721,926.402 785.416,899.797 817.076,899.797C848.736,899.797 885.43,926.402 901.271,951.052C933.111,1000.6 937.864,1027.22 937.864,1038.68C937.864,1058.77 929.154,1124.33 817.075,1124.33Z" style="fill:rgb(171,146,126);fill-rule:nonzero;"/>
        </g>
    </g>
</svg>
