<?xml version="1.0" encoding="UTF-8" standalone="no"?>
<!DOCTYPE svg PUBLIC "-//W3C//DTD SVG 1.1//EN" "http://www.w3.org/Graphics/SVG/1.1/DTD/svg11.dtd">
<svg width="100%" height="100%" viewBox="0 0 124 128" version="1.1" xmlns="http://www.w3.org/2000/svg" xmlns:xlink="http://www.w3.org/1999/xlink" xml:space="preserve" xmlns:serif="http://www.serif.com/" style="fill-rule:evenodd;clip-rule:evenodd;stroke-linejoin:round;stroke-miterlimit:2;">
    <g transform="matrix(1,0,0,1,-1686.94,-3018.01)">
        <g transform="matrix(0.455435,0,0,0.455435,1376.36,2362.04)">
            <path d="M813.51,1713.87C804.798,1703.31 787.171,1697.52 773.701,1692.58C760.231,1687.65 746.123,1682.87 735.887,1673.51C725.651,1664.14 717.631,1646.74 725.501,1635.65C709.866,1632.17 696.599,1620.95 691.657,1607.02C686.714,1593.1 690.215,1576.74 700.664,1565.61C696.085,1560.5 694.577,1553.25 696.786,1546.97C698.995,1540.69 703.258,1534.7 710.25,1532.95C701.819,1518.77 703.899,1500 715.272,1487.64C726.645,1475.27 746.598,1470.08 763.448,1475.1C768.786,1462.55 782.627,1451.33 797.101,1448.5C814.847,1445.03 829.896,1455.42 839.578,1468.28C839.678,1467.72 840.385,1465.92 840.485,1465.35C848,1458.53 860.386,1456.62 869.955,1460.82C879.524,1465.02 885.587,1475.01 884.38,1484.61C889.446,1481.3 897.767,1482.39 903.567,1484.48C915.408,1488.73 925.406,1497.08 931.073,1507.44C936.74,1517.81 938.024,1530.09 934.605,1541.24C940.717,1546.49 942.019,1556.06 936.631,1561.93C946.623,1570.69 946.629,1587.31 940.784,1598.75C934.938,1610.19 922.519,1618.18 909.094,1621.39C913.366,1630.37 913.41,1641.29 908.014,1649.76C902.619,1658.22 892.655,1664.15 881.958,1665.25C884.997,1674.98 878.584,1683.2 869.105,1688.5C859.626,1693.8 832.921,1702.27 813.51,1713.87Z" style="fill:rgb(198,171,146);fill-rule:nonzero;"/>
            <path d="M755.541,1500.36C756.478,1499.92 757.392,1499.53 758.259,1499.2C761.356,1498.02 762.912,1494.56 761.734,1491.46C760.556,1488.36 757.091,1486.81 753.992,1487.98C752.832,1488.42 751.626,1488.94 750.405,1489.52C747.41,1490.94 746.133,1494.52 747.55,1497.51C748.576,1499.68 750.731,1500.94 752.977,1500.94C753.838,1500.94 754.712,1500.76 755.541,1500.36ZM727.388,1522.88C726.276,1522.88 725.151,1522.57 724.146,1521.93C721.36,1520.13 720.555,1516.42 722.35,1513.63C725.11,1509.35 729.012,1504.92 733.635,1500.82C736.115,1498.62 739.906,1498.85 742.105,1501.33C744.303,1503.81 744.076,1507.6 741.596,1509.8C737.78,1513.18 734.614,1516.75 732.439,1520.13C731.292,1521.91 729.361,1522.88 727.388,1522.88Z" style="fill:rgb(249,247,245);fill-rule:nonzero;"/>
            <path d="M759.654,1533.34C742.486,1528.85 723.117,1534.09 710.553,1546.62C717.409,1552.33 724.07,1558.82 732.595,1561.44C741.121,1564.06 751.527,1562.67 757.146,1555.75L759.654,1533.34Z" style="fill:rgb(247,239,227);fill-rule:nonzero;"/>
            <path d="M714.176,1549.69C719.818,1554.5 725.574,1559.29 732.595,1561.44C741.121,1564.06 751.527,1562.67 757.146,1555.75L757.953,1548.54C743.78,1544.26 728.171,1544.77 714.176,1549.69Z" style="fill:rgb(247,197,197);fill-rule:nonzero;"/>
            <path d="M873.972,1533.34C891.139,1528.85 910.509,1534.09 923.073,1546.62C916.217,1552.33 909.556,1558.82 901.03,1561.44C892.505,1564.06 882.099,1562.67 876.48,1555.75L873.972,1533.34Z" style="fill:rgb(247,239,227);fill-rule:nonzero;"/>
            <path d="M901.03,1561.44C908.502,1559.15 914.542,1553.87 920.536,1548.76C905.685,1544.73 889.227,1544.9 875.888,1550.46L876.48,1555.75C882.099,1562.67 892.505,1564.06 901.03,1561.44Z" style="fill:rgb(247,197,197);fill-rule:nonzero;"/>
            <path d="M872.851,1532.77C872.851,1532.77 880.239,1563.77 872.851,1581.79C865.462,1599.82 851.356,1618.56 846.654,1630.82C841.952,1643.07 834.563,1657.49 817.099,1657.49C799.635,1657.49 792.246,1643.07 787.544,1630.82C782.842,1618.56 768.736,1599.82 761.347,1581.79C753.958,1563.77 761.347,1532.77 761.347,1532.77C764.886,1535.31 769.742,1534.79 773.839,1533.32C777.936,1531.85 781.217,1528.28 782.339,1524.08C788.665,1530.19 799.048,1531.49 807.777,1530.39C816.506,1529.28 824.622,1524.05 829.23,1516.56C833.953,1525.86 847.79,1529.47 857.608,1525.94C858.467,1528.05 860.205,1531.38 861.064,1533.48C864.945,1534.65 869.699,1535.32 872.851,1532.77Z" style="fill:rgb(247,239,227);fill-rule:nonzero;"/>
            <path d="M829.219,1627.75C828.023,1626.23 825.821,1625.97 824.304,1627.17L817.099,1632.85L809.894,1627.17C808.376,1625.97 806.176,1626.23 804.979,1627.75C803.782,1629.27 804.042,1631.47 805.56,1632.66L813.599,1639L813.599,1657.49C813.599,1659.42 815.166,1660.99 817.099,1660.99C819.032,1660.99 820.599,1659.42 820.599,1657.49L820.599,1639L828.638,1632.66C830.156,1631.47 830.416,1629.27 829.219,1627.75Z" style="fill:rgb(97,81,67);fill-rule:nonzero;"/>
            <path d="M844.404,1574.29C839.948,1574.29 836.335,1577.91 836.335,1582.36C836.335,1586.82 839.948,1590.43 844.404,1590.43C848.86,1590.43 852.473,1586.82 852.473,1582.36C852.473,1577.91 848.86,1574.29 844.404,1574.29ZM797.863,1582.36C797.863,1586.82 794.25,1590.43 789.794,1590.43C785.338,1590.43 781.725,1586.82 781.725,1582.36C781.725,1577.91 785.338,1574.29 789.794,1574.29C794.25,1574.29 797.863,1577.91 797.863,1582.36Z" style="fill:rgb(97,81,67);fill-rule:nonzero;"/>
            <path d="M750.108,1480.7C738.839,1480.7 727.605,1485.31 720.793,1492.71C711.733,1502.56 710.011,1517.87 716.697,1529.12C717.909,1531.16 718.085,1533.65 717.174,1535.83C716.262,1538.02 714.37,1539.65 712.069,1540.23C707.337,1541.41 704.895,1546.52 703.86,1549.46C702.559,1553.16 703.497,1557.53 706.251,1560.61C708.847,1563.5 708.795,1567.91 706.132,1570.74C697.583,1579.85 694.675,1593.11 698.725,1604.52C702.82,1616.05 713.969,1625.4 727.13,1628.33C729.582,1628.87 731.598,1630.61 732.5,1632.95C733.402,1635.3 733.071,1637.94 731.618,1639.99C726.687,1646.94 732.578,1660.32 740.95,1667.97C749.455,1675.76 761.811,1680.26 773.76,1684.62L776.282,1685.54C777.296,1685.91 778.333,1686.29 779.389,1686.67C791.038,1690.9 805.125,1696.01 814.809,1704.51C826.08,1698.39 838.694,1693.28 849.105,1689.07C856.136,1686.22 862.209,1683.76 865.444,1681.95C869.855,1679.49 876.935,1674.33 874.798,1667.49C874.127,1665.34 874.457,1663 875.695,1661.12C876.933,1659.25 878.95,1658.02 881.188,1657.79C889.647,1656.92 897.503,1652.3 901.689,1645.73C905.46,1639.81 905.702,1631.72 902.321,1624.61C901.35,1622.57 901.352,1620.19 902.329,1618.15C903.305,1616.11 905.151,1614.62 907.352,1614.09C919.598,1611.17 929.599,1604.16 934.105,1595.34C938.457,1586.82 938.771,1573.78 931.688,1567.57C930.169,1566.24 929.252,1564.36 929.142,1562.34C929.032,1560.32 929.74,1558.35 931.106,1556.86C932.392,1555.46 932.578,1553.74 932.507,1552.55C932.381,1550.42 931.338,1548.32 929.717,1546.92C927.457,1544.98 926.561,1541.89 927.435,1539.04C930.259,1529.83 929.187,1519.62 924.493,1511.04C919.703,1502.28 911.151,1495.17 901.031,1491.53C898.327,1490.56 895.331,1490.01 892.81,1490.01C890.919,1490.01 889.339,1490.33 888.479,1490.89C886.03,1492.49 882.88,1492.52 880.403,1490.97C877.926,1489.42 876.574,1486.57 876.939,1483.67C877.727,1477.4 873.43,1470.53 866.942,1467.69C864.58,1466.65 861.836,1466.1 859.007,1466.1C854.567,1466.1 850.195,1467.45 846.953,1469.76C846.93,1469.83 846.908,1469.89 846.889,1469.96C846.257,1472.73 844.106,1474.91 841.324,1475.58C838.419,1476.27 835.381,1475.18 833.585,1472.79C828.675,1466.27 818.302,1455.32 804.004,1455.32C802.2,1455.32 800.362,1455.5 798.542,1455.86C786.685,1458.18 774.828,1467.51 770.35,1478.04C768.856,1481.55 764.964,1483.38 761.304,1482.29C757.768,1481.24 754.002,1480.7 750.108,1480.7ZM813.514,1721.37C811.338,1721.37 809.195,1720.43 807.725,1718.64C800.975,1710.46 786.169,1705.09 774.272,1700.77C773.201,1700.38 772.148,1700 771.12,1699.63L768.621,1698.71C755.298,1693.85 741.523,1688.83 730.824,1679.04C719.981,1669.12 712.704,1653.48 715.454,1640.37C701.117,1634.68 689.449,1623.22 684.589,1609.53C679.353,1594.78 682.028,1577.98 691.303,1565.19C687.953,1558.82 687.301,1551.33 689.711,1544.48C692.015,1537.93 695.666,1532.81 700.317,1529.45C694.537,1513.7 697.979,1495.36 709.752,1482.56C719.458,1472 734.545,1465.7 750.108,1465.7C753.291,1465.7 756.425,1465.97 759.48,1466.49C767.087,1454.03 781.161,1443.98 795.66,1441.14C798.429,1440.6 801.235,1440.32 804.004,1440.32C816.816,1440.32 829.172,1446.07 839.513,1456.69C845.088,1453.1 851.953,1451.1 859.007,1451.1C863.894,1451.1 868.721,1452.09 872.968,1453.95C882.06,1457.94 888.729,1466.02 891.092,1475.05C895.744,1474.79 901.178,1475.65 906.103,1477.42C919.628,1482.28 931.127,1491.91 937.654,1503.84C943.562,1514.65 945.395,1527.3 942.879,1539.17C945.581,1542.77 947.212,1547.13 947.481,1551.66C947.677,1554.97 947.141,1558.17 945.937,1561.08C954.546,1572.95 953.545,1590.25 947.462,1602.16C942.049,1612.76 931.592,1621.43 918.692,1626.28C920.888,1635.84 919.401,1645.84 914.339,1653.79C909.042,1662.1 900.178,1668.41 890.199,1671.27C889.733,1680.45 883.617,1688.98 872.766,1695.04C868.709,1697.31 862.542,1699.81 854.733,1702.97C843.182,1707.65 828.807,1713.46 817.359,1720.31C816.16,1721.03 814.831,1721.37 813.514,1721.37Z" style="fill:rgb(171,146,126);fill-rule:nonzero;"/>
            <path d="M899.268,1555.71C893.747,1557.41 886.131,1557.12 881.816,1552.71C881.419,1547.09 880.697,1542.02 880.044,1538.22C891.829,1536.48 904.22,1539.56 913.829,1546.59C909.106,1550.56 904.495,1554.1 899.268,1555.71ZM867.299,1579.52C863.54,1588.69 857.749,1598.41 852.639,1606.99C847.908,1614.94 843.439,1622.45 841.052,1628.67C836.504,1640.52 830.456,1651.49 817.099,1651.49C809.206,1651.49 800.841,1648.73 793.146,1628.67C790.759,1622.45 786.29,1614.94 781.559,1606.99C776.449,1598.41 770.658,1588.69 766.899,1579.52C762.446,1568.66 764.137,1551.79 765.705,1541.97C766.269,1542.02 766.838,1542.05 767.419,1542.05C770.246,1542.05 773.262,1541.5 776.372,1540.38C779.605,1539.22 782.497,1537.24 784.794,1534.72C793.867,1538.99 804.018,1538.42 808.716,1537.83C816.444,1536.85 823.696,1533.37 829.347,1528.12C832.163,1530.33 835.524,1532.06 839.301,1533.23C843.869,1534.63 848.734,1535.07 853.334,1534.56C853.647,1535.23 853.927,1535.84 854.123,1536.32L855.476,1539.63L858.898,1540.66C862.41,1541.72 865.612,1542.16 868.494,1541.98C870.062,1551.8 871.75,1568.66 867.299,1579.52ZM734.358,1555.71C729.13,1554.1 724.52,1550.56 719.797,1546.59C729.557,1539.45 742.187,1536.39 754.137,1538.32C753.516,1541.95 752.837,1546.73 752.434,1552.02C748.264,1557.09 740.152,1557.49 734.358,1555.71ZM927.31,1542.37C918.641,1533.73 907.094,1528.17 895.012,1526.38C884.327,1524.8 871.91,1529.8 863.536,1521.07C860.882,1518.3 858.96,1517.49 855.073,1518.89C848.136,1521.37 838.648,1518.54 835.917,1513.16C834.188,1509.76 833.469,1504.15 828.329,1505.42C824.812,1506.29 824.462,1509.99 822.837,1512.63C819.425,1518.18 813.296,1522.13 806.837,1522.94C799.823,1523.83 792.531,1522.99 787.08,1518.23C784.526,1516 782.544,1512.68 778.771,1513.31C774.617,1513.99 775.452,1517.69 772.669,1519.66C768.061,1522.91 762.084,1526.61 756.402,1526.51C750.226,1526.41 744.54,1525.47 738.307,1526.43C726.336,1528.26 714.91,1533.8 706.316,1542.37L701.654,1547.02L706.715,1551.23C707.718,1552.07 708.717,1552.92 709.719,1553.78C715.949,1559.09 722.391,1564.58 730.833,1567.18C733.912,1568.13 737.335,1568.66 740.822,1568.66C744.677,1568.66 748.611,1568.01 752.243,1566.53C752.61,1572.7 753.645,1578.82 755.795,1584.07C759.892,1594.06 765.925,1604.19 771.248,1613.13C775.71,1620.63 779.923,1627.7 781.942,1632.97C785.446,1642.1 793.652,1663.49 817.099,1663.49C840.546,1663.49 848.752,1642.1 852.256,1632.97C854.274,1627.7 858.488,1620.63 862.95,1613.13C868.273,1604.19 874.306,1594.06 878.402,1584.07C880.528,1578.88 881.564,1572.84 881.942,1566.74C885.417,1568.06 889.144,1568.66 892.804,1568.66C896.291,1568.66 899.714,1568.13 902.794,1567.18C911.234,1564.58 917.676,1559.09 923.905,1553.78C924.908,1552.92 925.907,1552.07 926.911,1551.23L931.972,1547.02L927.31,1542.37Z" style="fill:rgb(238,222,207);fill-rule:nonzero;"/>
        </g>
    </g>
</svg>
